/* XPM */
static char *result[] = {
/* columns rows colors chars-per-pixel */
"50 50 147 2 ",
"   c #4E411C",
".  c #534116",
"X  c #634E18",
"o  c #4F4524",
"O  c #524620",
"+  c #544A28",
"@  c #655E3A",
"#  c #6E653B",
"$  c #626043",
"%  c #6D6640",
"&  c #726F4D",
"*  c #7E7B56",
"=  c #7D7D5E",
"-  c #D70C09",
";  c #E30908",
":  c #FB0202",
">  c #F00808",
",  c #F91F08",
"<  c #F71110",
"1  c #F71D1B",
"2  c #D73007",
"3  c #E13E07",
"4  c #F93003",
"5  c #F93E0C",
"6  c #FA2513",
"7  c #9A7719",
"8  c #846C25",
"9  c #877025",
"0  c #8D742A",
"q  c #8E7B3C",
"w  c #917B36",
"e  c #E44600",
"r  c #E44A01",
"t  c #F2440C",
"y  c #E45402",
"u  c #E45C02",
"i  c #F25F06",
"p  c #F95D07",
"a  c #FB540F",
"s  c #E46400",
"d  c #E96304",
"f  c #E56B01",
"g  c #E96C02",
"h  c #F16006",
"j  c #F16906",
"k  c #FB6E04",
"l  c #FB620A",
"z  c #E57300",
"x  c #EA7302",
"c  c #E57B01",
"v  c #F47102",
"b  c #FB7601",
"n  c #F37E01",
"m  c #FB7B01",
"M  c #FA720C",
"N  c #897B42",
"B  c #BA8A0C",
"V  c #A6811B",
"C  c #B68714",
"Z  c #BD8F11",
"A  c #BB811A",
"S  c #B88A1B",
"D  c #BC931D",
"F  c #9E883F",
"G  c #C5880A",
"H  c #D99709",
"J  c #DA9808",
"K  c #C59819",
"L  c #E68602",
"P  c #EC8000",
"I  c #E78900",
"U  c #EC8A02",
"Y  c #E68508",
"T  c #E88C0C",
"R  c #F08601",
"E  c #FB8301",
"W  c #F28C02",
"Q  c #FB8C01",
"!  c #ED9502",
"~  c #ED9D05",
"^  c #F69402",
"/  c #FB9201",
"(  c #F29C06",
")  c #FB9809",
"_  c #EE991A",
"`  c #F49E16",
"'  c #FA9B10",
"]  c #F99619",
"[  c #DDA40D",
"{  c #D7A211",
"}  c #E3A407",
"|  c #E3A509",
" . c #E4A80B",
".. c #F5A305",
"X. c #F5AC03",
"o. c #F8AB04",
"O. c #F1A30A",
"+. c #EFB005",
"@. c #F2B104",
"#. c #FAB502",
"$. c #FAA21D",
"%. c #EA9627",
"&. c #EA972B",
"*. c #EEA22D",
"=. c #EEA331",
"-. c #ECA739",
";. c #F8AE35",
":. c #85835C",
">. c #838363",
",. c #898966",
"<. c #8D8D69",
"1. c #908D63",
"2. c #92926E",
"3. c #969671",
"4. c #9D9D75",
"5. c #9F9F78",
"6. c #A2A279",
"7. c #A9A97E",
"8. c #F0AC41",
"9. c #FAB741",
"0. c #F3B945",
"q. c #F4BC56",
"w. c #FCC04F",
"e. c #F8C258",
"r. c #FDCC67",
"t. c #F7CA69",
"y. c #FCCD6A",
"u. c #FACD73",
"i. c #FCD273",
"p. c #FCD67B",
"a. c #ADAD82",
"s. c #B2B285",
"d. c #B6B689",
"f. c #BCBC8D",
"g. c #BFBF90",
"h. c #C3C392",
"j. c #C9C997",
"k. c #CDCD9A",
"l. c #D3D39E",
"z. c #FDDB82",
"x. c #FDDF8A",
"c. c #FEE28E",
"v. c #FFE390",
"b. c #D7D7A1",
"n. c #DDDDA6",
"m. c #E4E4AB",
"M. c #EBEBB0",
/* pixels */
"m.h.4.5.6.6.>.>.4.k.n.6.5.5.>.= = 3.6.6.6.5.4.6.6.5.4.4.4.4.6.6.6.4.6.6.6.,.= 3.6.5.6.2.= 2.6.6.<.= ",
"b.f.5.5.3.2.,.2.5.s.j.h.7.<.4.2.= 3.6.6.6.6.s.4.2.4.7.s.g.d.6.4.6.4.3.2.4.a.a.5.5.6.a.s.s.6.4.6.3.<.",
"g.s.5.5.2.>.3.7.6.4.7.n.a.:.d.a.= 3.6.6.4.7.g.4.= 4.7.h.n.k.5.4.6.6.,.>.3.j.n.a.3.5.d.k.n.f.4.4.6.6.",
"7.6.5.5.3.3.s.d.6.5.4.3.3.4.7.3.= 3.6.5.5.6.7.4.3.4.7.7.7.7.6.6.5.5.4.3.4.7.a.7.6.4.7.6.2.4.6.6.5.6.",
"4.6.6.d.d.s.d.a.2.4.4.>.2.6.5.2.<.7.a.6.5.4.4.7.s.6.4.4.4.3.2.4.6.5.5.7.d.a.4.2.4.a.6.2.,.2.6.6.4.6.",
"6.6.6.l.n.f.a.2.= 2.6.5.6.5.5.4.5.f.d.5.5.5.5.d.g.6.5.5.6.3.:.3.6.6.4.a.n.j.3.= 3.h.a.4.6.5.4.6.6.5.",
"6.2.,.7.d.7.6.5.3.4.6.5.5.7.f.7.,.<.3.5.a.a.6.6.7.5.4.5.4.7.a.7.5.6.4.7.k.f.4.3.4.7.5.6.6.6.5.6.4.4.",
"6.2.,.2.5.4.5.6.6.6.6.5.3.4.d.7.>.= <.5.h.j.6.4.5.7.7.5.4.7.s.6.4.3.3.4.s.a.5.5.7.s.6.5.4.5.6.4.7.a.",
"5.5.4.6.6.6.4.5.6.6.6.6.<.:.4.6.5.5.5.5.l.b.6.3.6.g.s.5.6.2.>.2.4.>.= ,.4.5.5.4.f.n.s.4.5.6.4.6.a.h.",
"5.6.6.6.4.6.6.6.6.2.<.4.4.2.3.7.d.d.a.5.a.h.k.s.6.7.s.s.6.6.7.j.d.:.>.3.5.4.4.4.a.g.7.7.d.7.4.4.7.a.",
"6.4.4.6.6.5.6.6.4.,.>.4.6.6.6.7.f.h.s.6.3.a.l.f.4.4.a.g.7.6.f.l.j.>.2.6.4.6.a.6.4.4.3.6.g.7.4.6.4.4.",
"6.6.6.5.5.5.6.3.:.2.4.5.4.6.5.4.6.6.6.5.5.3.<.2.6.4.6.6.6.3.,.5.7.5.6.3.= a.n.a.3.4.,.,.6.6.6.4.6.6.",
"<.2.6.6.6.5.6.4.<.6.d.a.7.5.4.7.s.6.6.s.d.7.= 2.d.6.5.5.3.>.= >.2.6.6.4.4.d.h.6.s.g.<.>.a.7.4.6.6.5.",
":.2.6.5.5.5.4.5.6.s.h.j.s.4.6.s.f.7.7.f.h.:.B +.#.#.#.@.B $ >.:.,.6.4.7.g.s.4.3.g.n.3.2.g.s.6.5.4.6.",
"3.5.4.>.,.6.<.,.5.6.s.n.h.5.d.s.6.6.4.X } o.~ U I I L L ! X.[ . 2.6.4.6.6.6.6.4.6.7.6.4.7.d.d.6.4.6.",
"6.7.a.5.3.2.,.<.5.4.5.f.7.7.g.d.4.# S O.0.e.t.W W U I T q.-.I ( S # 6.6.5.6.6.s.7.4.4.6.4.a.s.6.4.4.",
"5.a.g.h.a.:.3.6.6.6.3.:.,.7.d.d.7 X.` p.c.c.i./ / / Q U =.8.L c c J 7 5.5.5.6.f.d.6.5.5.5.5.4.6.5.6.",
"5.7.a.s.3.= f.k.6.g.j.* >.6.7.0 o.^ w.v.v.z.$./ / / Q Q R c c c c f O.9 5.6.5.2.3.6.6.6.6.4.5.6.g.n.",
"5.3.3.3.2.,.f.j.5.j.l.4.3.6.& } ^ ^ 9.r.e.' / / Q / Q Q Q P c c c z u Y * 6.4.= >.3.4.6.6.6.4.2.a.j.",
"5.2.>.3.6.5.5.6.5.d.h.h.s.4.C ^ / / / / / Q / / Q Q Q Q E E c c z z f y A 6.5.>.= :.3.6.5.6.4.:.= >.",
"f.7.2.4.5.6.s.s.5.6.a.s.7.. ..^ / ) / / / / Q Q Q Q Q E Q E n z z z f u W . 6.3.,.= 3.6.6.<.<.7.4.<.",
"d.a.5.5.5.5.a.s.7.5.4.3.3. .^ ) ;.) / / / Q M Q Q Q E Q E E E x z z z s y | 6.6.2.,.3.6.6.<.<.f.s.6.",
">.2.5.6.6.5.,.2.f.s.3.>.@ o.U y.v.;./ / E M 6 l k E E E E E m z z f f s e ..% 5.4.5.4.4.5.5.4.6.6.6.",
"= <.5.5.6.5.2.3.a.a.4.<.Z ! _ z.v.) / / E , < - 3 E E E m m m x f f g u r d Z s.a.6.g.g.6.7.d.d.7.6.",
"= 2.6.6.5.5.5.5.5.5.5.6.[ I *.c.c./ Q Q Q l > : E E E m m m m x f f s r y r { f.d.4.k.k.6.a.g.g.a.4.",
"3.a.f.7.5.6.,.>.5.6.5.5.+.I *.v.i.Q Q Q Q i h 4 b E m m m m b g g g s r r e +.g.d.4.7.7.6.5.7.7.6.4.",
"s.f.h.7.3.2.4.3.2.6.s.6.@.L *.v.y.Q Q E E E E E E m m m b b v g s s s e r e +.s.f.f.7.3.4.5.4.<.6.s.",
"g.g.f.7.2.:.s.s.:.6.f.6. .L =.c.i.Q Q Q E E E E m m m m l p g g s s y e e e  .3.g.n.s.4.6.6.3.:.6.h.",
"7.7.7.6.4.3.7.4.* 3.7.5.[ L &.x.x.Q E E E E m m m b b k a t d s s s e e r r [ >.a.m.s.6.f.7.4.3.4.7.",
"5.4.4.5.5.5.6.4.3.4.5.5.V ! Y p.v.] Q E E E m m m b v 5 1 ; 2 d s y e e e x V ,.6.j.g.f.d.7.6.6.5.4.",
"5.5.5.6.5.6.4.7.h.7.4.6.,.#.c %.v.u.n E E m m m b b M j - ; u s u r e e e X.<.6.4.6.l.k.6.4.6.6.6.5.",
",.2.6.5.6.5.<.<.7.d.s.6.<.} L c &.u.x n m m m b b v f y u u e s y e e e y | 6.6.6.4.4.6.4.5.6.4.7.f.",
"= ,.6.6.6.6.,.,.7.d.f.d.4.o O.c z z z z z f f f f g s s s s s u e e e e W + 5.3.5.5.:.= 6.3.4.7.s.f.",
"= <.6.6.6.6.4.7.g.7.a.n.h.4.q c z z z z z f f f f g s s s u y e e e e y q 4.3.>.,.5.,.,.5.,.<.f.d.4.",
"2.3.6.5.3.<.7.s.4.4.4.6.7.6.:.H s f f f f f f s s s s s s r e e e e e H 1.l.h.5.2.6.2.3.5.3.3.a.7.4.",
"7.6.5.7.3.= s.d.:.2.4.,.,.4.d.0 O.u f g f s s s s s s u e e e e e r ( 8 l.m.l.7.5.6.6.6.5.6.6.5.4.6.",
"g.a.6.f.7.= 7.g.4.4.7.f.5.:.3.d.N G g y u s s s s s u y y r e e d G F f.7.7.7.6.5.5.6.6.6.5.5.5.4.6.",
"j.d.6.7.6.2.7.a.5.2.3.s.7.5.3.a.d.<.w ( u r r r r e r e e e y ( 1.3.7.7.6.1.<.5.6.5.6.5.2.3.7.h.s.6.",
"f.a.5.7.6.5.5.6.5.<.>.3.s.g.7.3.3.6.a.O [ ..z r e e e r g o.|   6.h.7.4.6.1.:.3.6.5.6.2.= <.s.n.g.3.",
"6.5.6.l.g.>.3.6.5.4.4.4.6.7.5.3.>.s.f.6.,.& V D K { K D V ,.4.>.4.n.h.4.6.4.3.6.5.6.7.3.= 2.7.7.3.:.",
"a.6.6.j.d.,.,.4.a.7.6.s.7.5.5.3.,.a.d.a.2.<.3.7.s.f.a.5.f.h.a.2.3.k.7.<.5.6.6.6.5.5.3.2.<.<.2.4.2.<.",
"g.s.5.4.6.6.>.<.g.a.6.g.s.4.5.5.6.4.a.g.a.4.6.a.h.n.h.4.d.h.g.a.5.6.,.>.5.6.5.5.6.5.>.,.6.<.>.5.6.6.",
"<.3.6.4.7.f.5.3.a.6.6.a.2.,.3.6.6.5.5.a.6.4.5.3.2.s.a.6.7.4.2.3.6.5.4.3.5.6.6.4.4.6.3.3.4.4.4.6.2.>.",
">.2.6.4.7.f.d.7.2.2.3.5.2.,.7.7.5.6.5.4.7.a.6.,.= 2.4.6.6.2.>.3.5.5.7.7.6.3.3.s.7.6.6.7.7.6.6.6.2.>.",
"6.5.6.5.5.6.f.s.:.= >.5.5.6.g.d.5.5.5.5.d.g.6.,.>.4.6.6.5.6.5.5.4.4.d.f.7.,.>.l.k.4.4.7.h.7.6.6.5.6.",
"6.5.6.d.s.5.6.a.7.4.3.4.a.s.3.4.6.2.,.,.2.3.6.4.2.6.6.6.6.5.6.h.j.6.7.7.6.3.2.s.a.5.5.7.7.7.6.6.5.6.",
"7.6.6.7.a.6.4.7.g.a.4.4.f.j.<.,.3.,.>.>.:.,.4.6.6.6.4.3.6.4.6.j.k.6.4.3.5.6.7.a.7.5.5.5.3.3.4.6.5.6.",
"h.d.4.,.,.5.5.6.6.6.5.4.h.n.a.,.>.3.5.4.5.4.5.6.6.6.<.>.3.6.4.6.6.5.,.:.4.a.h.n.j.5.6.3.>.* ,.4.6.6.",
"6.6.4.2.2.6.2.2.4.6.4.4.s.g.7.3.2.4.5.<.4.6.6.6.5.6.3.2.4.4.6.d.h.h.6.2.a.s.s.g.d.4.6.3.= = >.4.6.6.",
"= ,.6.6.6.6.>.:.6.6.6.6.6.3.4.6.6.6.2.:.2.6.5.5.5.6.6.6.6.4.6.k.M.m.f.6.h.s.4.4.4.5.6.3.:.= ,.4.6.5."
};
