/* XPM */
static char *result[] = {
/* columns rows colors chars-per-pixel */
"50 50 118 2 ",
"   c #4D3D15",
".  c #775B11",
"X  c #795C12",
"o  c #7D7D5E",
"O  c #D60505",
"+  c #DB0303",
"@  c #D50D03",
"#  c #D40C0B",
"$  c #D51805",
"%  c #EC0202",
"&  c #FB0202",
"*  c #F90E0D",
"=  c #F81004",
"-  c #E61414",
";  c #F91514",
":  c #F61B1B",
">  c #FC1B1A",
",  c #DB3307",
"<  c #F82105",
"1  c #F82913",
"2  c #FA3710",
"3  c #FB2D2C",
"4  c #A97E0F",
"5  c #E44600",
"6  c #E44A02",
"7  c #E45503",
"8  c #E45C03",
"9  c #E95D05",
"0  c #FB510D",
"q  c #E46400",
"w  c #E56B01",
"e  c #EA6C02",
"r  c #F06C04",
"t  c #FA6B04",
"y  c #F66A08",
"u  c #FA6D09",
"i  c #E57300",
"p  c #E97201",
"a  c #E47B01",
"s  c #EF7B02",
"d  c #F67607",
"f  c #FB7601",
"g  c #F07C01",
"h  c #FB7B01",
"j  c #F6740B",
"k  c #FB601A",
"l  c #F94726",
"z  c #D49C0A",
"x  c #E68501",
"c  c #EB8502",
"v  c #E78901",
"b  c #EA8B01",
"n  c #E58709",
"m  c #F48501",
"M  c #FB8300",
"N  c #F28D05",
"B  c #FB8B01",
"V  c #EC9302",
"C  c #ED9902",
"Z  c #E6910F",
"A  c #F49203",
"S  c #FB9201",
"D  c #FA970C",
"F  c #F99B0B",
"G  c #E78D11",
"H  c #EA9413",
"J  c #EA941D",
"K  c #E2A707",
"L  c #E1A807",
"P  c #E2A609",
"I  c #F4A504",
"U  c #F7AB05",
"Y  c #F8AB05",
"T  c #F4B204",
"R  c #FAB503",
"E  c #F9A21E",
"W  c #E99425",
"Q  c #EA972B",
"!  c #EB9F2C",
"~  c #F7A425",
"^  c #F9A927",
"/  c #EEA638",
"(  c #EEAD3B",
")  c #F7A836",
"_  c #F8B035",
"`  c #838363",
"'  c #898966",
"]  c #8D8D6A",
"[  c #92926E",
"{  c #969671",
"}  c #9D9D75",
"|  c #9F9F78",
" . c #A2A279",
".. c #A9A97E",
"X. c #F9BD4C",
"o. c #F2B954",
"O. c #FACA63",
"+. c #FBCC6A",
"@. c #FCD376",
"#. c #F8D378",
"$. c #FCD97D",
"%. c #ADAD82",
"&. c #B2B285",
"*. c #B6B689",
"=. c #BCBC8D",
"-. c #BFBF90",
";. c #C3C392",
":. c #C9C997",
">. c #CDCD9A",
",. c #D3D39E",
"<. c #FDDC84",
"1. c #FDDE8A",
"2. c #FEE28E",
"3. c #FEE390",
"4. c #D7D7A1",
"5. c #DDDDA5",
"6. c #E6E6AC",
"7. c #EBEBB0",
/* pixels */
"6.;.} }  . .' ` } >.5. .} } ` o o }  .|  .} }  . . .} } } } }  . .}  . . .] o {  .|  .[ o ]  . .] o ",
"4.=.}  .} ] ] ]  .*.:.:...] } [ o {  .|  . .&.} ] } ..*.;.*. .} | | { [ } ..&. . . ...&.&... . .{ ] ",
"=.&.|  .[ ` { .. .{ ..5.%.` *...o {  . .} ..;.} ` { &.;.5.:.| }  . .] ` { :.5...}  .*.>.5.*.}  . . .",
".. .| } { { &.*. .} } [ { } ..{ o [  . .}  ...} [ }  ...%.%. . .| | } { } ......} } .. .{ {  . .|  .",
"} }  .*.*.%.*.%.[ } } ' [  . .[ ] ..%. .} } } ..%. .} } } { [ }  .|  ...*...} [ } .. .{ ` {  .} |  .",
" .}  .,.5.-.%.{ o [  .|  . .}  . .=.*.| }  .} *.=...} |  .{ ` [  .| } ..5.:.{ o } ;...| |  . . . .} ",
" .[ ' %.*.%. .} { }  . . . .*...' ] {  .&.&. ...%.} } | } ..%...}  . ...>.=.} { }  . . . .|  .} } } ",
" .[ ' { } } } |  . . . .{ } *...` o ' | ;.;. .{  .....| } ..&. .} } [ } *...}  ...&. .| | | |  .....",
" .}  .|  . .}  .}  . . .[ ` {  .}  .} } ,.,. .{  .=.&.|  .[ ` { } ` o ' }  .| } =.6.&.} }  .| | &.;.",
"|  . . .}  . . . .[ ] } { [ } ..*.=... .%.;.,.*.| %.&.*...} ..:.*.o ` { | } } } ..=.....*...} } ....",
" . .}  .}  . . .} ' ' }  . .} ..-.;.*.| { ..,.*.} } %.=. ...*.4.;.' [  .{  ... .} } {  .=.%.}  . .} ",
" . .}  . . . .{ ` [ } } }  . . . . . .|  .{ ] [  .}  . . .{ ' } ..}  .} o &.5.&.{ } ' '  . . .|  . .",
"] [  . . . . .} ]  .*.%...} } .... . .&.*. .o { &. .| } { ' o o [ |  .} } *.;...&.;.] ' &...} | }  .",
"o [  .} } } } }  .&.;.;.*.} } &.;.....-.X z T R R R R T z . ` o ] } } ..-.&.{ { =.5.{ ] =.&. .| }  .",
"{ } } ' ]  .] ' }  .&.6.;.} *.&. .  K R I V v v b v x x V I R P   | |  ... . .}  .%.| } ..*.*. .}  .",
" .%.%.} { [ ' ]  .}  .*.%. .;.*.P R V Z ( ( v v v x x x G n x v U K  . .} }  .&...{ |  .} %.&. .} } ",
"} &.;.;...` {  .}  .} o ' ..X R C H $.2.3.2.S S S b v H 3.3.o.a a Z T . | |  .-.&.| | |  .} |  . . .",
"|  ...&.[ o =.:. .;.:.o ' 4 R C ^ 3.2.3.3.O.S S B S B N J o./ a a a a U 4 | | { {  . . . .} }  .;.,.",
"| { [ } [ ] =.:. .;.,.} 4 U S S 3.3.3.3.O.S S B S S B B m x x a a a a w I 4 } o ` { | |  . .} [ %.:.",
" .[ ` {  . .| } | *.;.. R A S F 3.3.$.E S S S S B B B B B m a a a i a i 7 Y . ` o ` {  . . .{ ` o ` ",
"=...[ }  . .&.&.}  .%.R C S S I S S S S S S B S B B B B B B g a a i i i i 6 R { ' o {  . .] [ ..| [ ",
"*.%. .| | | &.&... .K C S S S S S S S S S B S B B B B M B M M a a i i i i 6 e P { ' {  .| ] ] =.%. .",
"` [  . . .| ' [ =.  R N S S S S S S S B B B S B B B M B M M M g a i i i w q 5 I   } } |  .} }  . . .",
"o ' | |  .} [ { &.P V S S _ S S S S S S B u B B B B B M B M M M i i i w i w 5 8 P  .-.=.| %.*.&...| ",
"o [ .. .| | } } | R v S +.2.X.S B S B B B ; B B M B B M M M M h i i i i w w 6 5 I [ ,.>. ...;.=...| ",
"{ ..*... . .' ' X I v D 2.2.~ S S S j k l ; 2 0 d M M M M h M h p e w w w w 7 5 b 4  ... . . ... .} ",
"&.=.;...{ ] { } z V v X.3.2.S S B B B < * ; O , M M M M h h h h p p w w w 8 8 5 8 z ..}  . .} ]  .&.",
";.-.=...] ` &.&.T v c <.3.2.B B B B B M ; % & M M M M h M h h h p w w w q 6 8 5 6 T ..}  . .{ `  .;.",
"...... .} { ..} R v x 2.3.$.B B B B B u $ y = f M h M h h h f f w e w w q 5 8 5 6 R %.| =...| { | ..",
"| } } }  . . .} R x v 2.3.@.B B B B B M B M M h M M h h h h h f e w w q q 5 7 5 5 R -.=.*...|  .| } ",
" .| }  .|  .} ..R x x 2.3.+.B B B B M M M M M M h h h h f f f r w q q q 8 6 5 5 5 R 4.,.| } | | | | ",
"' [  . . . .] ] R x x 2.3.@.B B M M B M M M h h h h h f f 1 f e w w q q 7 5 5 5 6 R | } |  . .| ..=.",
"o ]  . . . .] ] T x x #.3.<.M B B M M M h h M h h h f f y > 9 e q q q q 5 5 5 5 5 T o ` | { } ..*.=.",
"o ]  . . . .} ..z v x ! 3.3.B M M M M M M h h h h h t ; 3 : - # 7 q q 8 5 5 5 5 9 z ' '  .' ] =.&.} ",
"[ { }  .{ ] ..&.X I x a 3.3.) M M M M M h h h f f f f t * + + 8 q q q 6 5 5 5 5 N . { { | { { %...} ",
".. .} ..[ o &.*.` R a a W 3.1.s M h M h h h f h f f f r # @ % 9 q q 8 5 5 5 5 6 R  . . .|  . .} }  .",
";... .-...o ..-.} K v a a Q 1.i p s h f h f f g f r e 7 8 q 8 6 8 q 5 5 5 5 5 8 K |  . . . .| } |  .",
":.*. ... .[ ..&. .  T a a i a i i i i p p p w w w e q e e q q 8 8 6 5 5 5 5 5 U    . .} [ [ ..;.&. .",
"=.&.}  . .} |  . .] L n i i i i i i i p w w w w q e q q q q 8 q 5 5 5 5 5 5 e P  . . .{ o [ &.5.=.{ ",
" .|  .,.;.` [  . .{ } T i i w i w i w w w e w q q q q q q q q 5 5 5 5 5 5 6 R  .| |  .[ o [ ..%.{ ` ",
"&. . .:.*.' ] } %... .X Y q w i w w w w q w q w q q q q q 8 5 5 5 5 5 5 5 Y X |  .| [ [ ] ] [ } { ' ",
";.&.} }  . .` ] =.%...=.4 I 6 w w w w w q q q q q 8 q 8 5 5 5 5 5 5 5 5 I 4  .|  .| ' '  .] ` }  . .",
"] [  .} ..=.| { %... .%.{ 4 Y 6 7 w w q q q q q q q q 8 8 7 5 5 5 5 6 Y 4  . .} }  .{ } | } } | [ ` ",
"` [  .| ..*.*. .[ [ { } [ ] X R e 5 6 8 q q q q q 8 8 6 5 5 5 5 5 e R X  .{ { &.%.|  . ... . . .[ ` ",
" . .|  .|  .=.&.o o ' } |  .-.*.P U 8 5 5 5 6 6 5 5 5 5 5 5 5 8 Y P *.-...' ' ,.>.} } ..;... . .|  .",
"| }  .*.&.} ..%.%.} [ | %.&.} {  .  P R b 8 6 6 5 5 5 6 9 A R P    .%.%. .{ [ &.%.| | ..%... .|  . .",
".. . .&.%.| } ..=.&.} } =.;.] ' { ] ` ' X z T R R R T T z X  .:.:. .[ { }  ...%...| | } { { } }  .| ",
";.*.} ` ] }  . . .| | } ;.5.%.] ` [ | | | | | |  . .[ o {  . . . .| ' ` } &.;.5.;.|  .{ ` o ' |  .| ",
"}  .} [ [ | [ [ }  .| } &.=...{ [ } | [ }  . .}  . .{ [ } }  .&.;.;. .[ %.&.&.-.*.|  .{ o o ` }  . .",
"o ] |  . . .` `  . . .| } }  . . . .[ o [  . . . .}  . . .}  .>.7.6.*...;.&.} } } |  .{ o o ' |  . ."
};
