/* XPM */
static char *result[] = {
/* columns rows colors chars-per-pixel */
"50 50 117 2 ",
"   c #4D3D15",
".  c #775B11",
"X  c #795C12",
"o  c #7D7D5E",
"O  c #CE0A09",
"+  c #DB0303",
"@  c #D50D03",
"#  c #D40C0B",
"$  c #D51805",
"%  c #EC0202",
"&  c #FB0202",
"*  c #F90E0D",
"=  c #F81004",
"-  c #E61414",
";  c #F91514",
":  c #F61B1B",
">  c #FC1B1A",
",  c #DB3307",
"<  c #F82105",
"1  c #F82913",
"2  c #FA3710",
"3  c #FB2D2C",
"4  c #A97E0F",
"5  c #E44600",
"6  c #E44A02",
"7  c #E45503",
"8  c #E45C03",
"9  c #E95D05",
"0  c #FB510D",
"q  c #E46400",
"w  c #E56B01",
"e  c #EA6C02",
"r  c #F06C04",
"t  c #FA6B04",
"y  c #FA6D09",
"u  c #E57300",
"i  c #E97201",
"p  c #E47B01",
"a  c #EF7B02",
"s  c #F67607",
"d  c #FB7601",
"f  c #F07C01",
"g  c #FB7B01",
"h  c #F6740B",
"j  c #FB601A",
"k  c #F94726",
"l  c #D49C0A",
"z  c #E68501",
"x  c #EB8502",
"c  c #E78901",
"v  c #EA8B01",
"b  c #E58709",
"n  c #F48501",
"m  c #FB8300",
"M  c #F28D05",
"N  c #FB8B01",
"B  c #EC9302",
"V  c #ED9902",
"C  c #E6910F",
"Z  c #F49203",
"A  c #FB9201",
"S  c #FA970C",
"D  c #F99B0B",
"F  c #E78D11",
"G  c #EA9413",
"H  c #EA941D",
"J  c #E2A707",
"K  c #E1A807",
"L  c #E2A609",
"P  c #F4A504",
"I  c #F7AB05",
"U  c #F8AB05",
"Y  c #F4B204",
"T  c #FAB503",
"R  c #F9A21E",
"E  c #E99425",
"W  c #EA972B",
"Q  c #EB9F2C",
"!  c #F7A425",
"~  c #F9A927",
"^  c #EEA638",
"/  c #EEAD3B",
"(  c #F7A836",
")  c #F8B035",
"_  c #838362",
"`  c #898966",
"'  c #8D8D6A",
"]  c #92926E",
"[  c #969671",
"{  c #9D9D75",
"}  c #9F9F78",
"|  c #A2A279",
" . c #A9A97E",
".. c #F9BD4C",
"X. c #F2B954",
"o. c #FACA63",
"O. c #FBCC6A",
"+. c #FCD376",
"@. c #F8D378",
"#. c #FCD97D",
"$. c #ADAD82",
"%. c #B2B285",
"&. c #B6B689",
"*. c #BCBC8D",
"=. c #BFBF90",
"-. c #C3C392",
";. c #C9C997",
":. c #CDCD9A",
">. c #D3D39E",
",. c #FDDC84",
"<. c #FDDE8A",
"1. c #FEE28E",
"2. c #FEE390",
"3. c #D7D7A1",
"4. c #DDDDA5",
"5. c #E6E6AC",
"6. c #EBEBB0",
/* pixels */
"5.-.{ { | | _ _ { :.4.| } } _ o o [ | | | { { | | | | { { { | | | } | | | ' o [ | | | ] o ] | | ' o ",
"3.*.{ | { ] ' ' | &.;.-. .' { ] _ [ | } | | %.{ ' {  .%.-.%.| { } } ] ] {  .$.| } | $.%.%. .{ | [ ' ",
"*.%.} | ] _ [  .| [  .4.%._ &. ._ [ | | }  .-.{ _ [ %.-.4.:.{ { | | ` _ { -.4.$.{ | %.:.4.&.{ } | | ",
" .| } { [ [ %.&.| { { [ ] {  .[ o ] | } | | | { ] } |  .%. .| | | { { [ [  .%. .{ {  .| [ [ | } | | ",
"{ { | &.&.$.&.$.] { { _ ] | | ] '  .$.| { { {  .%.| { { { [ ] { | } |  .&.$.{ ] { $.| ] _ [ | | } | ",
"| { | 3.4.=.$.[ o ] | | | | } | | &.&.} { | | %.*.| { | | ] _ ] | } { $.4.-.[ o [ -.$.{ | } } | | { ",
"| ] ` $.&.$.| { [ { | | } | &. .` ' [ | %.%.|  . .| { } {  .$.| } | } $.:.*.{ [ {  .} } | | } } { { ",
"| ] _ [ { { { | | | | | [ { &. ._ o ` | -.-.| [ |  . .} {  .%. .{ [ [ { %.$.} } $.$. .{ { } | }  . .",
"| } { | { | | | | | | | ] _ { | } { { { >.3.| [ | *.%.{ | ] _ ] { _ o _ { | } { *.5.%.[ { | { } %.-.",
"| | | } | | { | | ] ' { [ ] [  .&.*.$.} . l Y T T T T Y l .  .;.&.o _ [ } | { {  .*. . .&. .} {  .$.",
"| | } | | { | | [ ` _ { | | { $.=.  L T I B v z v z z z B P T J   ` [ | { | $.| { { [  .*. .{ | } { ",
"| | | { | | | [ _ ] { } { } | | K T B C / / v v v z v z F b z c Y K } [ o $.4.$.{ [ ` ' | | | } | } ",
"' ] | | | | | { ] | %.%. .{ X T V G #.1.2.1.A A A v z G 1.2.X.p p B Y X | %.-.| %.-.' ` %. .{ | | { ",
"o ] | | { | { { | %.-.;.%.4 T V ~ 2.2.2.2.o.A A N A N v H X.^ p p p p I 4 $.{ { *.4.[ ' =.$.} } | | ",
"[ { { _ ` | ' ` | | %.4.4 U Z A 2.2.1.2.o.A A N A N A N n p z p p p p q P 4 } { |  .} {  .&.&.| { | ",
"| $.$.{ [ ] ` ' { { | X T Z A D 2.2.#.R A A A A A N N N N n z p p u p p 6 U X %. .{ } | } $.%.| { { ",
"{ %.-.;. ._ [ | | | { T Z A A A A A A A A N A A N N N N N m x p i p u u w 6 Y =.%.| } } } } } | | | ",
"} |  .$.] o *.:.| -.K V A P A A A A A A A A N N N N m N m N m p p p u u u 6 e L [ | | | | } } } -.4.",
"} [ ] { ] ' *.;.{   T B A A A A A A A A N N N N N N m N N m m f u u u u u q 6 I   [ } } } | { ]  .:.",
"| ] _ [ | } | } | L V A A ) A A A A N A N y N N N N N m m m m g u u u u w w 5 8 L _ [ | } } { _ o _ ",
"*. .] { | | %.%.{ T c A O.1...A A N N N M ; N N m N m m m m g g i u w w w w 5 5 T o [ | } ] '  .{ ] ",
"&.$.| } } } $.%.X P c S 2.2.! N A A h j k ; 2 0 s N m m m m m g i u u w w w 7 5 M X [ | } ` ] *. .| ",
"_ ] | | | } _ ] l B v ..2.2.A N N N N < * ; + , m m m m m g g g i u w w w 8 8 5 8 l } } } { { | | | ",
"o ` } } | } ] [ T v z ,.2.<.A A N N N N ; % & m m m m g g g g g w u w w q 5 8 5 6 Y =.=.| $.&.%. .| ",
"o ] | | | } { { T c z 1.2.#.N N N N N y $ y = d m m g g g g g d e w w w q 5 8 5 6 T :.:.|  .-.-. .| ",
"[  .*. .| | ` ` T c c 1.2.O.N N N N m m m m m m m g g g g g g d e w w q q 5 7 5 5 T  . .| | | | | { ",
"%.*.-. .[ ' [ { T z z 1.2.O.N N N m N m m m m g g g g g d d d r w q w q 8 5 5 5 5 T  .{ | | [ ' |  .",
"-.=.*. .] _ %.%.T z z 1.2.+.N N m N m m m m m g g g g g d 1 d e e w q q 6 6 5 5 5 T  .{ | | { o | -.",
" . . .| { [  .{ Y z z @.2.<.m N N m m m g m g g g g d d y > 9 e w w 8 w 5 5 5 5 6 Y %.| *. .{ { |  .",
"| { { { } | | { l c p Q 2.2.N N m m m m m m g g d g t ; 3 : - O 7 q q 8 5 5 5 5 9 l -.&.&. .| | | | ",
"{ | } } | } {  .X P p z <.2.( m m m m g g g g d d d d t * + + 8 q q w 5 5 5 5 5 M X >.>.| { | | | { ",
"` ] | } | | ' ' $.Y p p E 2.<.a g m m g g g g d d d d r # @ % 8 q q 7 5 5 5 5 5 T { } } { | | {  .*.",
"o ' | | | | ` `  .K z p p W <.u u p f g g g d d d r w 7 8 q 7 6 q 8 5 5 5 5 5 9 L | o _ } [ { $.*.*.",
"o ' | | | | {  .-.  T p p u p u u u u i e e e e w w e q q q q q 8 6 5 5 5 5 5 U   } ` ` } ` ` *. .{ ",
"] [ { | [ '  .%.[ { K v p u u u u w u w i w e w e e q q q q q q 6 5 5 5 5 5 e l ] } [ [ } [ [ $. .{ ",
" .| }  .] o %.&._ ] { T w u w u u u w w w w w w q q q q q q 8 5 5 5 5 5 5 5 T $.} } | | } | } } | | ",
"=. .| =. .o  .-.} { $.X I q w w w w w w w w w q q q q q q 7 5 5 5 5 5 5 5 U X $.} | } | | } } { | | ",
";.&.|  .| ]  .$.| ' [ %.4 P 7 w w w w w q q q q q q q 8 5 5 5 5 5 5 5 5 P 4 ' { | } | { ] [ $.-. .{ ",
"*.$.| | | } { | } ` _ [ %.4 I 6 7 w w q q q q q 8 q 8 8 8 7 6 5 5 5 6 I 4 ] _ [ | } | [ o ' %.4.*.{ ",
"| | | >.-._ [ | } { { { } $.X T w 5 6 8 q q q q q 8 8 6 6 5 5 5 5 e T . | { [ } | } | [ o ]  .$.[ _ ",
"$. .| -.&.` ` { $.$.| $.$.} } [ J U 9 5 5 5 5 5 5 5 5 5 5 5 5 q U J  .] { | | } } } ] ' ' ] [ { ] ` ",
"-.%.| { | | _ ] =.$.| =.$.} } } |   J T M 8 6 5 5 5 5 6 9 M T K   { ` _ { | | | | } ` ` | ` _ { | | ",
"' ] | {  .*.| [ $. .| $.[ _ [ | | } |  .X l Y T T T T Y l X ] [ | | { [ | | | { } } { { } [ { } ] ` ",
"_ ] | |  .&.%.| ' ] [ } ] _  .$.} | | }  .$.| ` o [ } } } [ _ ] } }  . .| [ [ %.$.} } |  . .| } ] _ ",
"| | | { { | *.%._ o _ { } | *.&.} } } | &.=.| ` _ { | } | { | | { { &.*. .` ` >.:.{ {  .-. .| | { | ",
"{ } | %.%.{  .$. .{ ] { $.%.{ { | ] _ ` ] [ | { [ } | | | { | -.;.|  . .| ] ] $.$.} }  . . .| | | | ",
"$.| | %.$.| {  .*.%.| { &.;.' _ [ ' _ _ _ ` { | | | { [ { | | ;.:.| [ [ }  . . . .} | { [ [ { } | } ",
"-.%.{ ` ` | | | | | | { -.4.$.' _ ] } } { { | } } | ] _ [ | | | | { ` ` {  .;.4.;.} | [ _ o ` { | } ",
"| | { ] ] | ] ] { | { { %.*. .[ ] { { ] [ | | | | | ] ] { | | %.-.-.| ]  .%.%.-.&.} | [ o o _ } | | ",
"o ` | | | | _ _ | | | | { { } | | | ] _ ] | | | | { | | | { | :.6.5.*.| -.&.{ [ { | | [ o o ` } | | "
};
