/* XPM */
static char *result[] = {
/* columns rows colors chars-per-pixel */
"50 50 174 2 ",
"   c #0E330E",
".  c #163D15",
"X  c #203B1B",
"o  c #65191B",
"O  c #5E2925",
"+  c #154515",
"@  c #164916",
"#  c #1A4D19",
"$  c #165E17",
"%  c #1B531B",
"&  c #175B18",
"*  c #1B5C1B",
"=  c #176017",
"-  c #176118",
";  c #19641A",
":  c #1C6B1D",
">  c #1E701E",
",  c #22671D",
"<  c #1F5C20",
"1  c #2A4B25",
"2  c #324B2A",
"3  c #3A4D2F",
"4  c #255424",
"5  c #215C21",
"6  c #2D562D",
"7  c #2C592C",
"8  c #33572B",
"9  c #3B4D30",
"0  c #3C5432",
"q  c #335C32",
"w  c #3E5F36",
"e  c #1F6420",
"r  c #1F6A20",
"t  c #1F7120",
"y  c #246424",
"u  c #216B22",
"i  c #296229",
"p  c #2B6B2C",
"a  c #227323",
"s  c #267B27",
"d  c #277428",
"f  c #287329",
"g  c #277A28",
"h  c #2A7B2B",
"j  c #2F6230",
"k  c #366136",
"l  c #326C31",
"z  c #3A6B36",
"x  c #3C643B",
"c  c #3E693E",
"v  c #2F7530",
"b  c #2F7A30",
"n  c #347533",
"m  c #367E37",
"M  c #4E751F",
"N  c #575D2E",
"B  c #475D39",
"V  c #485839",
"C  c #515D3F",
"Z  c #6D4E28",
"A  c #744F24",
"S  c #775125",
"D  c #7B5427",
"F  c #71522B",
"G  c #795529",
"H  c #7E592B",
"J  c #6E5631",
"K  c #675738",
"L  c #6B5D3D",
"P  c #745A33",
"I  c #715A35",
"U  c #7C5D32",
"Y  c #5F6028",
"T  c #457F27",
"R  c #43643C",
"E  c #7D6239",
"W  c #545E42",
"Q  c #5E5A42",
"!  c #4C6341",
"~  c #416A41",
"^  c #536141",
"/  c #5B6346",
"(  c #586A45",
")  c #5C6949",
"_  c #447945",
"`  c #67684D",
"'  c #646B4D",
"]  c #756644",
"[  c #736B4B",
"{  c #746948",
"}  c #696E51",
"|  c #6B7252",
" . c #727255",
".. c #787556",
"X. c #7C7C5D",
"o. c #852438",
"O. c #845D2D",
"+. c #825F31",
"@. c #87602F",
"#. c #88602F",
"$. c #846132",
"%. c #8A6331",
"&. c #8F6835",
"*. c #946E3A",
"=. c #982A47",
"-. c #AC2E53",
";. c #B1355C",
":. c #B53C65",
">. c #807F5F",
",. c #9A7876",
"<. c #2E812F",
"1. c #328633",
"2. c #448027",
"3. c #51862A",
"4. c #6A8525",
"5. c #569156",
"6. c #77845C",
"7. c #7E805F",
"8. c #7F8260",
"9. c #709770",
"0. c #8E8D29",
"q. c #A5A236",
"w. c #B7AB39",
"e. c #E2AE31",
"r. c #FDBA34",
"t. c #FEBF39",
"y. c #82815F",
"u. c #88825F",
"i. c #848463",
"p. c #878A66",
"a. c #898966",
"s. c #8D8D6A",
"d. c #918E6A",
"f. c #8F926C",
"g. c #92926E",
"h. c #969671",
"j. c #9D9D75",
"k. c #9F9F78",
"l. c #A09F77",
"z. c #A2A279",
"x. c #A9A97E",
"c. c #DDBA40",
"v. c #FEC644",
"b. c #F5C548",
"n. c #FDCB52",
"m. c #B29997",
"M. c #85A885",
"N. c #9FB49E",
"B. c #ADAD82",
"V. c #B2B285",
"C. c #B6B689",
"Z. c #BCBC8D",
"A. c #BFBF90",
"S. c #A4BAA2",
"D. c #D096A8",
"F. c #C0AEAC",
"G. c #C3C392",
"H. c #C8C896",
"J. c #CDCD9A",
"K. c #D3D39E",
"L. c #D7D7A1",
"P. c #DCDCA5",
"I. c #E5E5AC",
"U. c #EBEBB0",
"Y. c #DEBEC9",
"T. c #C9D5C8",
"R. c #E0C7CF",
"E. c #E3DADB",
"W. c #DAE1D9",
"Q. c #FCEAC4",
"!. c #E6E5E3",
"~. c #EBEBEA",
"^. c #FDF6E9",
"/. c #F1F1F1",
/* pixels */
"I.G.j.j.z.z.p.i.j.K.P.z.j.k.i.Q i.j.k.k.z.k.j.z.z.k.j.j.j.j.z.k.j.s.l.l.z.s.X.h.z.l.z.h.X.g.z.k.s.X.",
"L.Z.j.z.j.s.s.s.l.C.H.G.x.s.g.F X.h.z.k.k.z.V.j.f.j.x.V.A.C.z.j.f.U h.f.j.B.V.z.l.l.B.V.V.z.k.z.h.s.",
"A.V.j.z.g.i.h.x.z.h.x.P.B.i.j.D X.h.z.z.k.x.A.j.y.h.B.G.P.H.k.j.{ U s.i.h.A.P.B.h.k.V.J.P.C.j.z.z.z.",
"x.z.k.j.h.h.V.C.z.l.j.g.h.j.h.D  .h.z.k.k.z.x.j.h.j.x.x.B.B.z.z.+.E h.h.j.B.V.z.l.j.B.l.h.j.z.k.k.z.",
"j.j.z.C.C.B.C.+.p.j.h.i.g.z.j.S K x.B.k.k.j.j.x.B.z.j.j.j.h.g.h.%.a.l.x.C.B.h.g.] s.B.s.X.h.z.k.k.z.",
"z.j.z.K.P.A.x.O.%.f.+.X.z.z.z.J Z Z.C.k.k.k.j.V.Z.x.j.l.z.h.i.>.O.l.j.B.P.%.g.L *.l.B.j.k.k.z.k.k.k.",
"z.g.a.B.C.x.z.X.%.U O.L k.x.C.F F s.h.L B.B.z.x.B.j.j.l.{ a.B.y.#.l.l.B.H.%.[ &.$.B.k.k.B.j.k.k.k.k.",
"z.g.a.h.l.j.l.z.I @.H P h.h.C.Z G X.G Z G.H.z.j.l.x.x.z.[ O.{ X.O.g.g.j.l.%.%.%.B.B.B.h.j.j.k.k.z.B.",
"z.j.l.z.j.z.z.z.l.H O.F d.y.h.S G O.A j.J.L.x.h.x.Z.V.k.z.] O.U O.X.X.a...%.%.i.A.P.V.h.j.z.j.k.B.G.",
"l.z.z.k.z.z.j.G G J D D ..g.h.O.O.U B.l.B.G.J.V.j.B.V.C.z.z.{ O.#.` i.g.+.O.+.O.%.u.x.x.C.x.k.k.B.B.",
"z.k.l.z.z.j.z.I O.D D D S S S O.O.s.C.z.h.x.K.Z.j.j.B.Z.x.z.C.%.O.#.O.#.#.O.O.O.$.X.h.x.Z.B.k.k.k.k.",
"z.z.z.j.z.j.z.h.i.s.s.L S S O.#.O.h.z.j.z.h.s.g.k.k.k.z.z.h.a.$.O.O.O.O.U z.P.B.j.j.p.a.z.z.l.k.k.k.",
"s.g.l.z.z.k.z.j.s.z.C.B.x.k.h.%.O.l.z.V.C.z.X.h.C.z.z.j.g.a.X.G O.[ z.j.k.C.G.z.V.G.s.p.B.B.j.k.k.k.",
"y.g.z.j.j.z.j.j.z.V.G.H.V.j.z.$.%.x.x.A.G.V.i.z.Z.z.z.j.a.X.i.I O...l.x.Z.B.j.j.Z.P.h.s.A.B.k.k.k.z.",
"h.j.j.p.s.z.s.a.k.z.V.P.G.z.C.O.&.[ l.x.x.z.j.z.z.z.z.j.i.p.h.@.O.i.z.z.x.z.k.j.z.B.k.j.x.C.C.z.j.z.",
"z.B.B.j.h.g.a.s.k.j.k.Z.B.z.G.U %.+.l.j.j.j.j.V.C.z.z.j.X.p.{ #.O.k.k.l.j.j.z.B.x.j.l.l.k.B.C.z.j.j.",
"j.B.A.H.B.X.g.B.j.B.j.X.s.z.Z.[ %.O.d.l.z.l.z.H.L.x.j.j.p.a.O.%.+.z.k.l.l.k.z.Z.C.l.k.l.z.l.k.l.z.z.",
"j.B.B.B.g.X.Z.J.j.A.H.| / s.B.j.O.O.N i.g.B.K.G.x.z.z.z.B.( %.#.I k.j.! k.z.k.g.h.z.z.z.l.l.k.l.G.L.",
"j.j.g.j.g.a.C.G.k.H.L.| 6 6 s.k.D , : y g.x.K.G.B.z.j.z.6.: > Y i.! ! q z.z.j.X.i.h.j.z.z.z.j.g.B.H.",
"B.s.X.h.j.B.B.j.k.V.G.g.w x 6 W ; ; $ ; R k.j.H.P.x.j.g.: : : : y x x x k.z.j.p.X.i.h.z.l.z.h.>.X.i.",
"C.B.s.j.B.j.B.V.k.z.B.s.x 6 q q $ : ; ; ; X.h.B.C.x.g.r : ; , t k ~ ~ R p.g.j.j.p.X.h.z.l.f.f.B.j.s.",
"V.B.B.j.j.j.B.V.B.j.j.q 6 6 6 x k ; ; ; : ; z.z.j.j.8 ; ; ; > u k x x x a.h.z.z.h.p.h.z.l.s.s.Z.V.z.",
">.s.j.j.j.j.i.f.Z.B.h.` x q c q x ; : ; ; ; * y 5 - ; & $ : : c x c ~ w Z.B.j.z.j.j.j.k.l.j.j.z.z.k.",
"X.>.B.j.B.l.g.j.B.B.j.f.q x x x k ; : ; ; : : : ; - ; $ ; : ; i ~ q c ) A.V.z.B.B.l.A.A.l.B.C.V.x.z.",
">.g.B.j.j.h.j.j.k.k.} k k c k c - ; - ; ; = ; - - ; & & ; ; > : ~ ~ k q q V.z.A.C.z.K.J.k.V.G.G.B.j.",
"h.B.V.B.j.B.a.i.z.z.j.R c q ~ k : - > > ; : ; - = ; = = ; : : : i ~ k x C.V.z.Z.C.j.z.x.z.z.z.x.z.j.",
"V.A.A.B.h.g.h.j.g.z.B.8.1 c k < : : : ; : ; - - = = - ; - : : ; ; k ~ q z.j.z.V.C.Z.z.h.j.j.h.s.z.V.",
"A.A.A.B.g.X.V.V.8.z.A.f.x x x e : : : : : : : - - = - - - - ; ; : c x q i.s.z.h.Z.I.C.j.z.z.h.i.z.G.",
"B.B.B.l.j.h.B.h.X.g.B.X.k x 7 ; ; : : : r : : : = ; = $ - $ - - : 5 R ) h.j.j.i.B.I.V.z.C.B.j.h.j.x.",
"h.k.h.k.B.h.3 V a.h.j.V ( x * : > : t > : ; : : ; ; * ; - $ $ - ; $ k j.z.z.j.i.z.H.G.C.C.x.z.z.k.j.",
"k.l.h.k.j.3 j.B.C.W } s.k.6 5 a a c.b.q., t > : - ; = & 0.e.4.$ ; & | k.z.z.a.j.j.z.K.K.z.j.k.z.z.z.",
"a.g.B.k.k.! a.a.x.C.C.j.s.i.4 : 2.v.n.Q.w.: > > ; ; & r.^.r.r.$ : 1 j.j.z.k.C z.z.j.z.j.j.z.z.j.B.C.",
"X.s.B.j.h.3 a.p.B.V.C.C.j.i.| < : c.b.v.q.: t t : ; ; r.t.t.M ; & / x.x.j./ j.g.j.g.3 9 l.j.h.x.V.Z.",
"X.s.k.k.B.X.h.B.A.B.B.L.G.j.h.# y t 3.T a : r t : ; a : 4., ; & # p.C.Z.j.i.j.X.0 h.p.a.} a.s.Z.C.j.",
"s.d.k.k.h.a.V B.h.h.B.B.l.B.V.< @ + < u s g a r t u a : : ; ; @ % k.h.j.) K.! p.g.l.h.h.B h.h.B.x.j.",
"B.B.j.B.h.X.B.9 8.h.h.i.a.j.C.a.. < f < < g a t a a : : . $ 4 + 0 k.s.g.j.Z.K.B.j.l.z.z.^ z.z.j.j.k.",
"Z.B.k.C.B.X.B.j.} k.B.Z.j.>.j.V.  5 i h g y d d a r e ; t * % + C.k.B.C.B.x.x.z.| j.k.h.s.z.k.j.j.z.",
"G.V.j.B.B.s.B.B.a.W s.V.B.j.j.B.. 5 5 h <.v j d a 4 * : r % @ | Z.B.V.V.j.d.s.2 k.B X.0 f.h.x.G.C.z.",
"A.B.j.B.B.B.h.j.l.>.1 h.V.A.B.a.W } i b 1.1.p d f y s <.a % } X.7.H.V.j.z.>.2 j.z.l.z.g.8.s.V.P.Z.h.",
"B.h.B.J.V.X.g.B.j.j.j.9 W k.g.X i.B.l p m 1.1.a g h s s u x j.y.. J.A.h.3 ' j.j.l.l.x.h.X.g.x.B.h.y.",
"B.B.z.G.C.a.a.j.V.B.j.B.B.X.X.h.s.B.f.v n W.5.b n m M.M.% Z.B.f.h.| 2 / k.z.z.l.z.k.j.s.s.s.h.j.g.s.",
"Z.V.k.k.l.z.i.f.Z.B.B.Z.B.h.h.B.k.k.z.n n /.Y.R.D.E.~.9.% G.A.B.l.j.a.i.k.z.l.l.z.k.i.i.z.s.i.k.z.z.",
"s.h.k.j.B.Z.k.h.B.B.B.B.h.i.h.B.z.k.z.l n !.:.:.;.:.,.~ + k.s.j.z.k.h.h.k.z.z.j.j.l.j.h.k.h.h.z.g.a.",
">.h.k.j.B.C.B.B.g.d.s.j.g.i.j.B.k.z.k.z p m.-.:.-.;.O j # h.i.h.k.l.B.B.z.h.h.V.B.k.k.x.B.x.z.z.g.i.",
"k.k.k.l.k.z.Z.B.X.X.i.j.B.j.Z.V.l.l.k.} < !.o :.;.o.Y.+ V k.k.k.k.j.C.Z.z.s.p.K.J.k.j.x.A.B.j.z.z.j.",
"k.k.z.C.B.j.B.B.B.j.h.k.B.B.j.h.l.f.i.a.< T.E.=.;.K !.. s.k.z.G.H.l.x.B.z.h.h.B.B.k.j.x.B.x.z.k.z.z.",
"B.z.z.V.B.k.h.B.A.B.k.k.C.H.g.i.h.s.i.p.4 _ ~.F.O ,.N.+ j.k.z.H.H.z.h.h.j.z.B.B.x.k.k.j.j.h.j.j.z.j.",
"A.V.j.p.s.k.k.j.B.k.k.j.G.P.B.s.>.h.k.l.h.% T.~.m.!.# W j.z.k.z.z.j.s.i.j.B.G.P.H.j.k.h.i.X.a.j.z.l.",
"k.l.k.s.h.z.h.s.k.k.k.k.V.Z.x.h.g.j.k.f.j.f.5 9.S.5 B f.j.k.l.C.G.H.z.h.B.V.V.A.C.j.z.h.>.X.p.j.z.l.",
"X.s.z.l.z.l.i.p.k.z.l.l.j.j.k.z.z.z.h.X.f.l.z...( h.z.z.k.j.z.J.U.I.C.z.G.V.j.j.j.l.z.h.X.X.a.j.z.z."
};
