/* XPM */
static char *result[] = {
/* columns rows colors chars-per-pixel */
"50 50 210 2 ",
"   c #020102",
".  c #090700",
"X  c #0C0A03",
"o  c #06000A",
"O  c #09020D",
"+  c #0B0B0A",
"@  c #110E01",
"#  c #161100",
"$  c #191405",
"%  c #0C0211",
"&  c #140818",
"*  c #161611",
"=  c #1B1B14",
"-  c #231C03",
";  c #231F1E",
":  c #2D2401",
">  c #2C2508",
",  c #382B03",
"<  c #24241B",
"1  c #28271B",
"2  c #352D11",
"3  c #1A0325",
"4  c #1E0629",
"5  c #20072C",
"6  c #281A29",
"7  c #250634",
"8  c #2C053F",
"9  c #2B2A26",
"0  c #302A28",
"q  c #343427",
"w  c #3B3B2C",
"e  c #312131",
"r  c #343232",
"t  c #473A07",
"y  c #4A3B01",
"u  c #564501",
"i  c #594C16",
"p  c #634E00",
"a  c #655000",
"s  c #695608",
"d  c #735B00",
"f  c #745815",
"g  c #7F680E",
"h  c #7A6616",
"j  c #49462B",
"k  c #554F2B",
"l  c #414132",
"z  c #474639",
"x  c #4D4D3A",
"c  c #51513C",
"v  c #695E31",
"b  c #2E0242",
"n  c #350B4A",
"m  c #3E0E56",
"M  c #430E5D",
"N  c #493149",
"B  c #4A006F",
"V  c #4C0D6A",
"C  c #561476",
"Z  c #523064",
"A  c #5C5C45",
"S  c #52524A",
"D  c #505050",
"F  c #626249",
"G  c #66654A",
"H  c #6C6C51",
"J  c #61615F",
"K  c #706F55",
"L  c #737356",
"P  c #767659",
"I  c #7C7C5D",
"U  c gray39",
"Y  c #7F7B6D",
"T  c #7A7974",
"R  c #7E7D7C",
"E  c #AE1325",
"W  c #896D00",
"Q  c #866709",
"!  c #937501",
"~  c #9D7D01",
"^  c #8C7418",
"/  c #937916",
"(  c #866927",
")  c #96424F",
"_  c #B45055",
"`  c #B66D5D",
"'  c #94476C",
"]  c #9C4174",
"[  c #AA5B6C",
"{  c #85736C",
"}  c #B86264",
"|  c #C77073",
" . c #A28100",
".. c #A88500",
"X. c #AE8A00",
"o. c #B18D01",
"O. c #B69100",
"+. c #BE9700",
"@. c #AE8E13",
"#. c #AE932E",
"$. c #B89E3A",
"%. c #BEA030",
"&. c #C29A00",
"*. c #C79E18",
"=. c #CDA300",
"-. c #CFA70B",
";. c #D1A501",
":. c #D5AA01",
">. c #D9AB06",
",. c #DFB204",
"<. c #DDB10B",
"1. c #CAA51A",
"2. c #CEA91C",
"3. c #D8AB1A",
"4. c #DDB51E",
"5. c #E4B501",
"6. c #E4B70B",
"7. c #E5BA1A",
"8. c #D08E2F",
"9. c #CB9625",
"0. c #D5972A",
"q. c #C6A527",
"w. c #D8B12E",
"e. c #E1B924",
"r. c #E2BB2A",
"t. c #998A4D",
"y. c #9A8D5A",
"u. c #9F9056",
"i. c #A8964C",
"p. c #A19153",
"a. c #B8A24E",
"s. c #838362",
"d. c #898966",
"f. c #8D8D6A",
"g. c #968B60",
"h. c #92926E",
"j. c #848176",
"k. c #888372",
"l. c #969671",
"z. c #9D9D76",
"x. c #9F9F78",
"c. c #A09362",
"v. c #A89E76",
"b. c #A2A279",
"n. c #A9A97E",
"m. c #D39753",
"M. c #5C0885",
"N. c #62088B",
"B. c #641889",
"V. c #6E1B94",
"C. c #771094",
"Z. c #710CA1",
"A. c #7401AB",
"S. c #7A11AC",
"D. c #7A4B90",
"F. c #81149A",
"G. c #9A3E95",
"H. c #830EBC",
"J. c #861EB7",
"K. c #891EBC",
"L. c #A61EBA",
"P. c #8423B2",
"I. c #8923BA",
"U. c #8931B3",
"Y. c #895885",
"T. c #826A8A",
"R. c #914CB3",
"E. c #AF41B3",
"W. c #860FC1",
"Q. c #8B0FC7",
"!. c #8D14C6",
"~. c #931ACE",
"^. c #971CD2",
"/. c #9723CD",
"(. c #9B23D5",
"). c #9C23D7",
"_. c #A12ACD",
"`. c #AB39C4",
"'. c #A225DE",
"]. c #A128DB",
"[. c #A738DC",
"{. c #A25CC5",
"}. c #B24CE3",
"|. c #BA62E5",
" X c #828281",
".X c #888888",
"XX c #989898",
"oX c #ADAD82",
"OX c #B2B285",
"+X c #B6B689",
"@X c #BCBC8D",
"#X c #BFBF90",
"$X c #AA91B6",
"%X c #BBB5B5",
"&X c #CF9B9F",
"*X c #C3C392",
"=X c #C9C997",
"-X c #CDCD9A",
";X c #D3D39E",
":X c #D7D7A1",
">X c #DDDDA5",
",X c #E4E4AB",
"<X c #B290C3",
"1X c #D7A5F0",
"2X c #D6D3CD",
"3X c #D5D5D5",
"4X c #E9CFF6",
"5X c #E6E6E6",
"6X c #F9F4FA",
"7X c #FEFEFE",
/* pixels */
",X*Xz.z.b.b.d.s.z.-X>Xn.x.z.s.P s.l.b.b.b.z.z.b.b.b.x.z.z.z.z.b.b.z.b.b.b.f.I l.b.b.b.f.P h.b.b.f.I ",
":X@Xz.b.z.f.f.f.z.+X*X*XoXf.z.f.s.l.b.x.b.b.OXz.h.l.n.OX*X+Xb.z.b.z.l.f.z.oXOXb.b.b.oX+XOXn.b.b.l.f.",
"*XoXx.b.h.s.l.n.b.z.n.>XoXs.+XoXI l.b.b.z.n.*Xz.s.l.oX*X>X-Xx.z.b.b.f.s.l.=X>XoXl.b.+X=X>X+Xz.x.b.b.",
"n.b.x.z.l.l.OX+Xb.z.z.l.l.l.oXl.I h.b.b.b.b.b.l.h.l.b.b.n.b.b.b.b.b.z.l.z.b.OXb.x.z.oXx.l.l.b.b.b.b.",
"z.z.b.+X+XoX+XoXh.z.z.s.h.b.x.l.f.n.oXx.P F A F F A A A A A c P z.b.z.b.@Xn.l.h.z.oXb.l.s.l.b.b.b.b.",
"b.z.b.;X>X#XoXl.s.f.b.z.b.x.x.b.b.@XOXI r 3 3 3 3 3 3 5 4 3 9 l s.z.z.oX>X*Xz.s.l.#XoXz.z.b.z.b.z.z.",
"b.h.d.oX+XoXb.z.l.z.x.b.x.b.+Xb.d.f.P < V Z.Z.Z.Z.Z.Z.P.P.P.<X X1 s.x.n.-X@Xz.h.z.b.b.b.b.b.x.b.x.z.",
"b.h.d.l.z.z.z.x.b.b.b.x.z.z.+XoXs.w q o 8 M.H.!.Q.^.^.].[.1X4X3X.Xc x z.OXn.x.x.oXOXb.b.x.x.b.z.b.oX",
"b.x.z.b.b.z.b.z.b.b.b.b.f.s.z.b.l..     o n H.Q.Q.'.'.'.}.7X7X7X7XD   s.x.b.x.z.@X>XOXz.x.x.x.x.OX#X",
"z.b.b.b.b.z.b.b.b.h.f.z.l.h.z.l q O.+.&.&.Q 6 Z.Q.~.~.'.[.|.4X7X7X{.S.< l x.z.x.n.@Xn.n.+Xn.x.x.n.oX",
"b.z.z.b.b.b.b.b.z.d.d.z.b.b.b.< @ 5.5.5.5.! - N.H.H.H.).'.[.1X6X6X|.).% < b.n.b.b.z.l.n.@Xn.z.x.x.x.",
"b.b.b.b.z.b.b.l.s.f.z.z.x.b.x.< # ,.5.6.i.u.-., O O % Q.Q.!.(.'.].].).& = oX>XoXl.z.d.d.b.b.b.x.b.b.",
"f.h.b.b.b.z.b.z.f.b.+XOXb.b.z.< # ,.5.6.p.u.<.d y y t M.Z.Q.^.(.^.S.V.+ < +X*Xb.OX*Xd.d.OXn.z.x.x.x.",
"s.h.b.z.z.b.z.z.b.+X*X=X+Xz.b.1 # 5.5.,.i.u.<.5.5.5.5.  7 W.Q.Q.Q.8     1 n.z.z.@X>Xl.h.#XoXx.x.x.x.",
"l.z.z.d.f.b.f.d.z.b.OX>X*Xz.+X1 . t i p.$.1.5.5.5.5.5.~ f 8 8 8 8 f ~ @ < b.z.z.b.n.x.z.n.+X+Xb.x.x.",
"b.n.oXz.l.h.d.f.b.z.z.@Xn.b.OX1 . X 0 k.%.5.6.6.,.>.6.5.o..       ~ ,.# < x.b.OXn.z.x.x.x.oXOXb.z.z.",
"x.oX*X=Xn.s.l.b.b.b.l.s.f.G o J Y :.>.<.i.j.j.j.j.j.k.5.5.-.t.t.:.u.{ + < z.b.@XOXb.x.b.b.z.x.b.b.n.",
"b.n.n.n.l.I @X=Xb.*X*XI s.F   J j.,.5.<.i.j.R XXXXXXXXq.3.q.u.u.3.v.XX. < b.z.l.l.b.b.x.b.z.z.b.@X;X",
"x.l.h.z.h.d.@X=Xb.*X:Xz.l.F   J T ,.5.5.5.q.j.5X7X7X7X.XR Y R  Xj.5X6Xo < b.z.I s.l.x.b.b.b.z.h.n.-X",
"b.h.s.l.b.b.b.x.L A +X*XOXA   0 z d ! 5.5.%.j.5X7X7X7X%X%X) { XX%X&X| . < x.z.d.I s.l.b.b.b.l.s.I s.",
"@Xn.h.z.b.b.n.h.j : I h.n.H < < ;   : O.:.q.y.2X5X5X5X3X&XE ] $X4X_ E . = h.b.l.d.I l.b.b.f.f.oXb.f.",
"+Xn.b.b.x.x.h.q s +.2 1 l.l.n.n.d.  . : ~ 5.3.b.XXXXXXr N L./.[.}.T.{ . < l.b.b.l.d.l.b.x.f.f.@XOXb.",
"s.h.b.b.b.x.K * g 4.> + f.I x l q       , W :.g. XR.R.C C m m B.).Z r   + c I z.z.z.z.x.b.z.z.b.b.b.",
"P d.x.z.b.b.L * h e.> + h.F .             y ;.y. X).].).Z.o   m /.n       o F OXoXb.#X@Xx.oX+XOXn.z.",
"s.h.n.b.x.z.I * h r.>   + J 5XU.C.;.:.:.:.~ - X + ).'.'.).(.(.B.& ! ;.C.U.5XJ * n.z.-X-Xb.OX*X#Xn.b.",
"l.n.@Xn.b.b.H * h e.> o   U 7XU.F.5.5.5.5.~ $     '.'.'.'.'.).B.O ~ 6.C.U.7XU + b.z.n.n.x.b.b.n.b.z.",
"OX@X*Xn.l.h.P * h e.> + R D.A.9.5.5.5.5.7.7.6.t             o u :.5.5.5.9.A.D.T + 1 n.l.z.x.z.d.b.OX",
"#X#X@Xn.h.s.d.= f w.2 & j.Y.C.9.5.5.5.:.4.e.6.y # + + # # X + u =.5.5.5.0.F.' j.& 0 n.l.b.b.l.s.b.*X",
"n.n.n.b.z.l.s.=     N.F.r.7.5.5.5.5.~ . D c.w.6.6.h.{ 5.<.w.c.D X ~ ,.5.5.5.5.5.F.M.o x @Xn.z.l.z.n.",
"b.z.z.z.z.b.s.* 3 b ' [ 7.6.5.5.5.W p o v i.a.$.$.D. X$.$.a.a.v . a W ,.5.5.5.5._ ) b N I x.x.b.b.z.",
"b.z.b.z.b.l.H 6 B H.w.7.5.5.5.&.o.= * X ! q.g.{ D. XT.T.T.g.q.! X * = o.&.5.5.5.5.*.S.B 6 H l.b.b.z.",
"d.h.b.x.x.H 6 V.~.^.3.6.5.5.5.u : s.A X ! <.2.R.U.U.P.P.R.2.e./ X F { : u 5.5.5.5.3.(.~.V.6 H z.n.@X",
"I f.b.b.x.A 4 K.'.'.| | 5.O.d k A b.f.c i ^ #.` } Q.Q.} ` #.( k x f.b.A j d O.5.| | '.'.K.4 A n.+X@X",
"I f.b.b.x.A 4 K.'.'.].`.5.W   H s.l.b.h.w 9 T 2.6.Q.Q.5.1.T r w l.z.+X+XI   W 5.`.].'.).K.4 c +XOXz.",
"h.l.x.b.l.d.H 9 B.).'./., j f.z.f.l.b.l.w t %.5.5.8.8.5.5.1.t w h.b.l.z.@Xb.k , /.).'.B.6 F f.oXn.z.",
"n.b.z.n.l.I f.= C ^.(.!.X l oX+Xn.x.z.f.q y ;.5.5.5.5.5.5.;.y l l.z.d.l.-X,XA + I.(.(.C < s.x.x.z.b.",
"#Xn.b.#Xn.I d.=   o o $ ;.Q X f.@Xn.H     y =.5.5.5.5.5.5.;.y     H oX@Xn.n.b.l.* o o z x.x.x.z.z.b.",
"=X+Xb.n.b.h.s.= > t y u ,...y A I K x   $ a &.,.5.5.5.5.5.&.a $   P OXOXz.h.d.l.w q q F h.l.n.*XOXz.",
"@XoXb.b.b.b.I = h r.6.5.5.5.5.:       . a  . .;.5.5.5.5.;. . .p X d.oXz.b.f.s.z.b.z.b.l.I f.OX>X@Xz.",
"b.b.b.;X#Xs.d.P j t 1.7.5.5.5.X. .~ a . a  . .X.O.y y O.o. .~ a . l.#Xz.x.z.l.b.z.b.n.l.I h.n.oXl.s.",
"oXb.x.=X+Xd.d.l.S   @.r.6.5.5.5.5.5. .X a  . . . .     . .~  .a X d.n.h.z.b.b.b.b.z.h.h.f.f.h.z.h.f.",
"*XOXx.z.b.b.d.h.@Xb.< - e.7.5.5.5.5. .X ^ 2... . .    ~  ...2.^ X L d.s.z.b.x.x.b.b.d.f.b.f.d.z.b.b.",
"h.l.x.x.n.@Xx.l.n.n.q 1 @.@.X.,.5.5...X ( 9.O.X.o.    o.X.O.9.( X L h.l.x.b.b.z.z.b.l.l.b.l.l.b.l.s.",
"s.h.x.z.n.@XOXn.h.h.l.h.o     X.,.5...o B ] >.5.5.  o 5.5.<.] B o L n.n.b.l.l.OXoXx.b.b.oXb.b.b.h.s.",
"z.b.x.x.x.b.@XOXs.I s.l.c c A i d d u o B ] e.6.5.    5.6.7.] B o w A F G d.d.;X-Xz.z.n.*XoXz.b.b.z.",
"x.z.b.+XOXx.n.n.n.z.h.x.oXn.s.0 5 3 5 7 N.G.m.0.0.. . 0.0.m.G.M.7 5 4 5 e I d.OXOXx.z.n.oXn.b.b.b.b.",
"n.b.b.OXoXb.z.n.@XoXx.z.@Xd.= B.J.J.J.K.^._.`.E.E.    E.E.`._.~.K.K.I.J.B.< L oXn.z.b.z.l.l.l.b.z.b.",
"*XOXz.d.d.x.b.b.b.b.x.z.*Xd.  n M M M m m M M M M     M M M m m m m M M n   P ,X*Xz.b.l.s.I d.z.b.b.",
"z.b.z.h.h.b.h.h.z.b.z.z.OXL     . o       o   o o     o     o       o   o   H #X+Xz.b.l.I I s.z.b.b.",
"I f.x.b.b.b.s.s.x.b.b.b.z.l.f.h.h.l.d.P d.l.h.h.h.h.h.h.h.f.l.*X>X:XoXh.n.b.l.z.z.x.b.l.s.I d.z.b.x."
};
