/* XPM */
static char *result[] = {
/* columns rows colors chars-per-pixel */
"50 50 210 2 ",
"   c #020102",
".  c #090700",
"X  c #0C0A03",
"o  c #06000A",
"O  c #09020D",
"+  c #0C0C0B",
"@  c #110E01",
"#  c #161100",
"$  c #181407",
"%  c #0C0211",
"&  c #140619",
"*  c #161412",
"=  c #1B1B14",
"-  c #231C03",
";  c #2D2401",
":  c #2C2508",
">  c #382B03",
",  c #382A0A",
"<  c #25251C",
"1  c #292819",
"2  c #1A0325",
"3  c #1E0629",
"4  c #20072C",
"5  c #281A29",
"6  c #250634",
"7  c #2C053F",
"8  c #2D2D23",
"9  c #2C2A27",
"0  c #302A28",
"q  c #353528",
"w  c #3B3A2C",
"e  c #362734",
"r  c #323232",
"t  c #473A06",
"y  c #4A3B01",
"u  c #564501",
"i  c #5A4D17",
"p  c #634E00",
"a  c #655000",
"s  c #685507",
"d  c #735B00",
"f  c #745815",
"g  c #7F680E",
"h  c #7A6616",
"j  c #4B472A",
"k  c #544E2A",
"l  c #434333",
"z  c #474639",
"x  c #4C4C3A",
"c  c #51513D",
"v  c #58553D",
"b  c #695E31",
"n  c #2D0242",
"m  c #350B4A",
"M  c #3E0E56",
"N  c #430E5D",
"B  c #4F2F5A",
"V  c #4A006F",
"C  c #4A1164",
"Z  c #4F0673",
"A  c #561476",
"S  c #5C5B44",
"D  c #52524A",
"F  c #50504F",
"G  c #626249",
"H  c #6A6A4F",
"J  c #6D6C52",
"K  c #61615F",
"L  c #706F55",
"P  c #737356",
"I  c #767659",
"U  c #7C7C5D",
"Y  c gray39",
"T  c #7F7B6D",
"R  c #7A7974",
"E  c #7E7D7C",
"W  c #AE1325",
"Q  c #896D00",
"!  c #866809",
"~  c #937501",
"^  c #9D7D01",
"/  c #8C7418",
"(  c #937916",
")  c #866927",
"_  c #96424F",
"`  c #B45055",
"'  c #B66D5D",
"]  c #94476C",
"[  c #9C4174",
"{  c #AA5B6C",
"}  c #85736C",
"|  c #B86264",
" . c #C77073",
".. c #A28100",
"X. c #A88500",
"o. c #AE8A00",
"O. c #B18D01",
"+. c #B69100",
"@. c #BE9700",
"#. c #AE8E13",
"$. c #AE932E",
"%. c #B89E3A",
"&. c #C29A00",
"*. c #CDA300",
"=. c #CFA70B",
"-. c #D1A501",
";. c #D5AA01",
":. c #D9AB06",
">. c #DFB204",
",. c #DDB10B",
"<. c #CAA51A",
"1. c #CEA91C",
"2. c #D8AB1A",
"3. c #DDB51E",
"4. c #E4B501",
"5. c #E4B70B",
"6. c #E5BA1A",
"7. c #D08E2F",
"8. c #CB9625",
"9. c #D5972A",
"0. c #C6A527",
"q. c #D8B12E",
"w. c #E1B924",
"e. c #E2BB2A",
"r. c #998A4D",
"t. c #9A8D5A",
"y. c #9F9056",
"u. c #A8964C",
"i. c #A19153",
"p. c #B8A24E",
"a. c #838363",
"s. c #898966",
"d. c #8D8D6A",
"f. c #968B60",
"g. c #92926E",
"h. c #848176",
"j. c #888372",
"k. c #969671",
"l. c #9D9D75",
"z. c #9F9F78",
"x. c #A09362",
"c. c #A89E76",
"v. c #A2A279",
"b. c #A9A97E",
"n. c #D39753",
"m. c #5C0885",
"M. c #62088B",
"N. c #641689",
"B. c #671D8A",
"V. c #6E1B94",
"C. c #771094",
"Z. c #710CA1",
"A. c #7401AB",
"S. c #7A11AC",
"D. c #7A4B90",
"F. c #81149A",
"G. c #9A3E95",
"H. c #830EBC",
"J. c #861EB7",
"K. c #891EBC",
"L. c #A61EBA",
"P. c #8423B2",
"I. c #8923BA",
"U. c #8931B4",
"Y. c #AF3FB7",
"T. c #895885",
"R. c #826A8A",
"E. c #914CB3",
"W. c #AF41B3",
"Q. c #860FC1",
"!. c #8B0FC7",
"~. c #8D14C6",
"^. c #931ACE",
"/. c #971CD2",
"(. c #9723CD",
"). c #9B23D5",
"_. c #9C23D7",
"`. c #A12ACD",
"'. c #AB39C4",
"]. c #A225DE",
"[. c #A128DB",
"{. c #A738DC",
"}. c #B24CE3",
"|. c #BA62E5",
" X c #828281",
".X c #888888",
"XX c #989898",
"oX c #ADAD82",
"OX c #B2B285",
"+X c #B6B689",
"@X c #BCBC8D",
"#X c #BFBF90",
"$X c #AA91B6",
"%X c #BBB5B5",
"&X c #CF9B9F",
"*X c #C3C392",
"=X c #C9C997",
"-X c #CDCD9A",
";X c #D3D39E",
":X c #D7D7A1",
">X c #DDDDA5",
",X c #E6E6AC",
"<X c #B290C3",
"1X c #D7A5F0",
"2X c #D6D3CD",
"3X c #D5D5D5",
"4X c #E9CFF6",
"5X c #E6E6E6",
"6X c #F9F4FA",
"7X c #FEFEFE",
/* pixels */
",X*Xl.l.v.v.s.a.l.;X>Xv.z.v.a.I a.l.v.l.v.z.l.z.v.v.l.l.l.l.v.z.z.z.v.v.v.d.U l.v.z.v.g.U d.v.v.d.U ",
":X@Xl.v.l.d.d.d.z.OX*X*Xb.d.l.g.U k.v.v.z.v.OXl.d.l.b.OX*X+Xv.l.v.z.g.g.z.b.oXv.z.v.b.OXOXb.v.v.g.d.",
"@XOXz.v.g.a.k.b.v.l.oX:XoXa.+Xb.U k.v.z.l.b.#Xl.a.k.oX*X>X=Xz.l.z.v.s.a.l.*X>XoXl.v.+X-X>X+Xl.v.v.v.",
"b.v.z.l.k.k.OX+Xv.l.l.g.g.l.b.l.U g.v.v.z.z.b.k.g.k.v.v.b.b.v.z.z.z.l.k.k.b.OXv.l.l.b.v.g.l.z.z.v.v.",
"l.l.v.OX+XoX+XoXg.l.l.s.g.v.v.g.d.b.oXl.I G G G G S S S S S S P l.z.z.b.+XoXl.g.l.oXv.g.s.g.v.v.z.v.",
"l.l.b.;X>X#XoXk.U g.v.v.v.v.z.z.v.+XOXU l 5 3 4 3 2 2 3 2 & & r a.l.l.oX>X=Xk.U k.*Xb.z.v.v.z.z.z.z.",
"v.g.s.oX+XoXv.l.g.l.v.v.z.v.+Xb.s.d.I 8 .X<XU.S.J.Z.Z.Z.Z.Z.Z.C 9 U z.b.=X@Xl.k.l.b.v.v.v.z.z.v.l.l.",
"v.g.s.k.l.l.l.z.v.v.v.l.l.l.OXb.a.l z .X3X4X1X{._././.!.~.Q.m.n   q x l.OXoXz.z.b.oXv.z.z.z.v.z.b.b.",
"v.l.l.v.l.v.v.v.l.v.v.v.d.a.l.z.k.. F 7X7X7X7X}.[.[._.!.!.H.n       . a.l.z.l.l.#X>XOXk.l.v.v.l.OX*X",
"v.v.v.v.v.v.l.v.v.g.d.l.l.g.l.l 0 P.E.7X7X4X|.[._.^.^.!.Z.5 ! &.&.&.+.1 l z.l.l.b.#Xb.b.+Xb.l.l.b.b.",
"v.l.z.v.v.l.l.v.l.s.s.l.v.v.l.< % _.|.6X6X1X{.[.].H.H.H.M.- ^ 5.4.4.4.# < v.oXv.v.l.k.b.@Xb.z.v.v.l.",
"v.v.v.l.v.v.v.k.a.g.l.l.z.z.v.< & _.[.[.[._.!.!.!.% O O t =.i.i.>.4.>.# = oX>XoXk.l.s.d.v.v.l.v.v.v.",
"d.k.v.v.v.l.v.l.d.v.OXOXb.v.l.< % V.S.)././.~.Z.m.t y y d :.y.u.5.4.>.# < +X*Xv.b.*Xd.a.OXv.l.v.v.l.",
"U g.v.l.l.v.v.l.v.OX*X=XOXl.z.<     7 ~.!.!.!.6   4.4.4.4.2.y.i.5.4.>.# 1 b.l.l.*X>Xk.g.#XoXv.v.v.v.",
"l.l.l.s.d.v.d.s.l.v.OX>X*Xv.OX1 # ~ f 7 7 7 7 h ^ 4.4.4.4.4.1.%.y.i t . < v.v.l.v.b.l.l.b.+X+Xv.l.v.",
"v.b.oXl.g.g.s.d.v.l.v.+XoXv.*X< # >...      . o.4.>.,.,.>.>.5.8.h.9 . X < g.v.b.b.l.v.v.l.OXOXv.l.l.",
"v.oX*X*Xb.U k.v.v.v.l.a.s.v.@X8 + R t.-.r.r.=.>.4.h.h.h.h.h.h.i.,.;.;.T K X G @XOXv.z.z.v.z.l.l.v.b.",
"z.b.b.oXk.U #X-Xv.#X*XU s.v.b.< X XXv.1.y.t.1.1.1.XXXXXXXX Xj.u.5.4.4.h.K   G g.k.v.v.v.z.z.z.v.#X;X",
"z.k.k.l.k.d.@X*Xv.=X;Xl.k.z.d.< @ 7X3Xh.h.h.h.D..X7X7X7X5Xh.0.4.4.4.>.E K   S U a.k.l.l.z.v.l.g.b.-X",
"v.g.U k.v.v.v.z.z.OX*X#XOXl.a.< X  .&X%XXX} _ %X%X7X7X7X5Xh.0.4.4.Q d z r   S s.U U x I z.v.l.a.U a.",
"@Xb.k.l.v.v.OXOXl.v.oXOXb.v.@X1   W ` 4X$X[ W &X3X5X5X5X2Xt.0.;.+.;   = = = H k.J S ; j s.s.g.b.l.d.",
"+Xb.v.z.z.z.b.+Xb.v.l.k.k.b.;X8   } T.}.{.`.L.B r XXXXXXz.2.,.^ ; .   I P I g.v.1 1 &.s 8 P d.@XOXv.",
"a.g.v.z.v.z.s.g.#XOXk.a.d.U x +   r B ).A N N A A E.E. Xt.;.Q >       l c x U l.+ ; 6.g = U z.v.v.v.",
"I s.l.v.v.v.g.k.oXb.l.d.k.G .       m ).N .   C._.].[.h.f.*.y           X . G b.+ : e.h = a.+XOXb.v.",
"a.g.v.v.v.v.l.l.z.z.z.k.$ Y 5XU.C.-.~ & N./.(._.].]._.+ + - ^ ;.;.;.;.C.U.5XK *   : e.h = s.#X@Xb.l.",
"k.b.@Xb.v.v.s.s.v.v.l.g.X Y 7XU.C.4.^ O N.].].].].]._.    $ ^ 4.4.4.4.F.U.7XY     : e.h = U b.b.v.z.",
"OX@X*Xb.k.g.k.l.d.v.< + R D.A.7.4.4.4.;.u       o       > 4.6.6.4.4.4.4.8.A.D.E + : w.h * U l.d.v.OX",
"#X#X@Xb.g.U OXOXU k.9 & } T.C.8.4.4.>.*.u X @ @ # + + # y 5.w.3.;.4.4.4.8.F.T.} & , q.f = U k.a.v.*X",
"b.b.b.v.l.k.b.k.w . M.S.4.4.4.4.4.4.^ X F x.e.5.>. X} 4.5.e.x.F + ^ >.4.4.4.6.e.S.M.    = s.l.k.l.b.",
"l.z.l.l.v.v.k.J e 7 _ ` 5.4.4.4.4.Q u X b u.p.p.%.h.R.%.%.p.u.b . p Q >.4.4.5.6.{ ] n 2 = s.l.v.z.l.",
"v.v.z.z.l.k.H 9 Z H.2.4.4.4.4.&.O.= * X ~ 0.f.} R.D.R.R.R.f.0.~ X * = O.*.4.4.4.e.9.A.Z 5 J k.v.v.z.",
"s.g.v.z.z.J 5 V.~./.2.4.4.4.4.u ; s.S X ( w.2.E.U.U.P.P.E.2.5.~ X G U ; u 4.4.4.5.2.).^.V.9 H l.b.@X",
"U d.v.z.z.S 3 K.].]. . .4.+.d k S v.d.c i ) %.' | !.!.| ' $./ i x d.b.D j d +.4. .| ].].K.3 S b.+X@X",
"U d.v.v.z.S 3 I.].].[.'.4.Q   J a.g.z.g.w r R 1.>.Q.Q.5.0.E r q k.z.OX+XU . Q 4.'.[.].].K.3 D +XOXl.",
"d.l.l.v.k.s.P 5 N._.].(.> j d.l.d.l.v.g.w t #.5.4.7.7.4.5.@.t w g.v.k.v.@Xz.k > )._._.N.5 G d.b.b.l.",
"b.v.z.b.k.U d.< A ).).~.. z +X+Xb.v.l.d.q u ;.4.4.4.4.4.4.;.y w g.l.d.g.-X:Xv X (.(.).A = a.v.z.l.v.",
"@XoXz.@Xb.U oX@Xx o o * d.U k.OX*Xb.J     y *.4.4.4.4.4.4.-.y     J oX+Xs.+ ! -.* o     * U v.l.l.v.",
"*X+Xl.oXv.g.b.oXH 8 8 l oXl.l.oXOXv.L   $ p &.>.4.4.4.4.4.&.p - . c U I v t X.>.u t t : * P b.*XOXl.",
"*XoXv.b.v.l.l.v.z.d.a.k.OX@Xv.l.l.l.I . a ....;.4.4.4.4.-.....p .       > 4.4.4.4.5.q.h $ P b.,X#Xl.",
"v.z.v.;X#Xs.k.v.z.k.l.l.v.b.v.g.a.oXa.. p ..^ O.@.y y +.O.^ ..p . a ^ ..o.4.4.4.6.<.u j S s.b.b.k.U ",
"OXv.v.*XOXs.s.l.oXb.b.oXb.z.z.k.d.oXU . a ........    ........a . ..4.4.4.4.4.4.3.$.. l d.d.k.l.k.d.",
"*XOXv.l.v.v.a.d.#XoXv.#XOXl.z.z.v.l.I X / 1.X.^ ..    ^ ^ X.1./ X X.4.4.4.4.6.w.$ < U a.v.d.a.l.v.v.",
"d.k.v.l.b.@Xz.l.b.b.v.b.k.a.l.z.v.z.I X ) 8.+.o.O.    O.O.+.8.) . X.4.4.>.o.#.$.1 q k.l.z.k.k.v.g.a.",
"a.g.v.l.b.@XOXb.g.g.k.z.d.d.v.b.l.z.I o V [ ,.4.4.    4.4.,.[ V o X.>.>.o.  .   v.c.l.v.b.b.v.v.g.a.",
"z.v.z.v.l.v.@XOXa.U a.l.z.b.@XJ c c w o V [ 6.5.4.    4.4.3.[ V o u d d i j l H *Xl.z.b.*Xb.v.v.l.v.",
"l.z.v.OXOXl.b.b.b.z.g.l.b.b.U 0 3 3 4 6 m.G.n.9.9.. . 9.9.n.G.m.6 3 4 3 e U s.oXoXv.z.v.oXb.v.z.v.v.",
"b.v.v.OXoXv.l.v.@XOXz.z.+Xs.= B.J.J.I.~./.`.'.W.W.    W.Y.'.`.^.~.I.I.J.B.< I oXb.z.z.l.k.l.l.l.v.z.",
"*XOXl.a.d.v.v.v.v.v.z.l.*Xa.  M N N M M M M M N C     C C N M M M M N N m   I >X*Xz.v.k.a.U a.z.v.z.",
"v.v.l.g.g.l.g.g.l.v.v.l.OXP                   o o       o             . o   J #X+Xz.z.k.U U a.z.v.v.",
"U d.v.v.v.v.a.a.v.v.v.l.l.k.d.g.g.l.d.I s.k.k.g.g.d.d.g.k.g.k.*X>X;Xb.k.oXv.k.l.l.z.v.k.U U s.z.v.v."
};
