/* XPM */
static char *result[] = {
/* columns rows colors chars-per-pixel */
"50 50 209 2 ",
"   c #0B0A09",
".  c #160A07",
"X  c #180C07",
"o  c #15110E",
"O  c #080A18",
"+  c #191611",
"@  c #181715",
"#  c #270C07",
"$  c #3F0B05",
"%  c #291809",
"&  c #361208",
"*  c #241D13",
"=  c #31240C",
"-  c #22221B",
";  c #2E281D",
":  c #060621",
">  c #080827",
",  c #05053B",
"<  c #2A1C2A",
"1  c #382C29",
"2  c #363629",
"3  c #3A372B",
"4  c #3A393A",
"5  c #440C05",
"6  c #5C0D03",
"7  c #4B140A",
"8  c #541705",
"9  c #5C1B05",
"0  c #6E140A",
"q  c #573705",
"w  c #4A3018",
"e  c #573A16",
"r  c #6B3504",
"t  c #570B25",
"y  c #761F3A",
"u  c #4C3826",
"i  c #59393B",
"p  c #45460A",
"a  c #694604",
"s  c #764B06",
"d  c #7E5309",
"f  c #795517",
"g  c #745518",
"h  c #54472E",
"j  c #474635",
"k  c #55523D",
"l  c #705428",
"z  c #68563A",
"x  c #6D6139",
"c  c #786636",
"v  c #050547",
"b  c #02025E",
"n  c #100A5F",
"m  c #241747",
"M  c #030362",
"N  c #02027F",
"B  c #031073",
"V  c #052471",
"C  c #14337B",
"Z  c #57165C",
"A  c #6B1F45",
"S  c #7F2144",
"D  c #6E2552",
"F  c #5A5A44",
"G  c #63634A",
"H  c #69664A",
"J  c #776A44",
"K  c #6D6D52",
"L  c #797553",
"P  c #7C7C5D",
"I  c #8A0F01",
"U  c #811502",
"Y  c #971601",
"T  c #A81C00",
"R  c #8A2603",
"E  c #A82901",
"W  c #B52A01",
"Q  c #A93100",
"!  c #BB3C29",
"~  c #CE3200",
"^  c #CF360C",
"/  c #D53400",
"(  c #D93600",
")  c #DE3900",
"_  c #FD2F20",
"`  c #855301",
"'  c #8A5604",
"]  c #8D5A04",
"[  c #935C0B",
"{  c #815E1C",
"}  c #9C6604",
"|  c #9D7F08",
" . c #986819",
".. c #A27902",
"X. c #B0730F",
"o. c #A86A18",
"O. c #865627",
"+. c #925C3C",
"@. c #9A6A2F",
"#. c #AE6E2A",
"$. c #A77426",
"%. c #B57728",
"&. c #AC7835",
"*. c #C94801",
"=. c #E14300",
"-. c #EB510F",
";. c #EB6900",
":. c #EE7600",
">. c #F2532D",
",. c #C57C29",
"<. c #D87C2E",
"1. c #8A7049",
"2. c #817D5A",
"3. c #A76943",
"4. c #FA7751",
"5. c #B48B00",
"6. c #B4853A",
"7. c #C68E03",
"8. c #CF9300",
"9. c #DB9C04",
"0. c #C98C1D",
"q. c #E68C00",
"w. c #F38900",
"e. c #EA9400",
"r. c #F89C00",
"t. c #DAA400",
"y. c #EAAB00",
"u. c #F7A501",
"i. c #FCAC00",
"p. c #F6B600",
"a. c #FEB400",
"s. c #FCBA02",
"d. c #F6B10B",
"f. c #D0862C",
"g. c #DC922E",
"h. c #CD8435",
"j. c #D58636",
"k. c #DD8D3A",
"l. c #E5A32E",
"z. c #EAB920",
"x. c #FFCA00",
"c. c #E6DA00",
"v. c #FBDD09",
"b. c #FAEC05",
"n. c #F6F200",
"m. c #FFFD01",
"M. c #FFFF0F",
"N. c #E5DB38",
"B. c #FEE729",
"V. c #83815E",
"C. c #BF9147",
"Z. c #838363",
"A. c #898966",
"S. c #8D8D69",
"D. c #92926E",
"F. c #969671",
"G. c #9D9D75",
"H. c #9F9F78",
"J. c #B99B6A",
"K. c #A0A077",
"L. c #A2A279",
"P. c #A9A97E",
"I. c #CD9751",
"U. c #E78B45",
"Y. c #E59C4E",
"T. c #D2A056",
"R. c #E7A456",
"E. c #F89A68",
"W. c #D3AC6D",
"Q. c #CAA872",
"!. c #EAB872",
"~. c #FDFA41",
"^. c #CEC06B",
"/. c #EAC47E",
"(. c #FCFC74",
"). c #15058D",
"_. c #020196",
"`. c #271590",
"'. c #000CAC",
"]. c #0014B7",
"[. c #5E4393",
"{. c #5F68AE",
"}. c #0049FA",
"|. c #617ED2",
" X c #977C91",
".X c #ADAD82",
"XX c #B2B285",
"oX c #B6B689",
"OX c #BCBC8D",
"+X c #BFBF90",
"@X c #A0A0B4",
"#X c #C0C08F",
"$X c #C3C392",
"%X c #C9C997",
"&X c #CDCD99",
"*X c #D3D39E",
"=X c #EFC482",
"-X c #F4C885",
";X c #F6CD8B",
":X c #EDC997",
">X c #FBE198",
",X c #D6D6A1",
"<X c #DCDCA5",
"1X c #F4D9A6",
"2X c #E4E4AB",
"3X c #F5E7CC",
"4X c #FAF9CE",
"5X c #F3F2EA",
"6X c #F9F9F4",
/* pixels */
"2X$XG.G.L.L.Z.Z.G.&X<XL.H.H.Z.L Z.F.L.L.K.K.V.J G.H.G.G.G.G.K.K.G.G.G..XG.A.P F..XF..XA.P S..XF.A.P ",
",XOXG.L.G.D.S.S.G.oX$X%X.XS.G.D.P F.L.L.K.J D...z G.L c #XoXK.K..XG.D.D.G..X.XG.F..X.X.X.X.XF..XF.S.",
"$X.XH.L.D.Z.F.P.L.G.P.<X.XZ.oX.XP F.L.L.K.d G.8.y.g L 9.{ %XH.G.G.G.S.P F.$X<X.XS..XXX&X<XoXF.F..X.X",
"P.L.H.G.F.F.XXoXL.G.G.F.D.G.P.F.P F.L.L.g s.` 8.m.p.' c.' P.L.H..XG.G.D.F..XXX.XG.D..X.XD.D..X.XF..X",
"G.G.L.oXoX.XoX.XF.G.G.Z.D.L.G.D.S..X.XG.g ,.e.8.5X~.t.N.x.g S.G.F.G..X.XoX.XG.D.G..X.XS.P D..XD..XF.",
"L.G.L.*X<X+X.XF.P D.L.G.L.H.L.G.H.oXc L.g 9. .8.~.6X=X3Xb.7.G l .XG.D..X<X$XG.P F.+X.XD.G..XD..XF.D.",
"L.D.S..XoX.XL.G.F.G.L.L.H.P.OXP.A.S.` ` ` 5Xc.8.m.6X>X3X6Xy.` ` .XG.G..X&XOXF.F.G..X.X.X.XD..XF..XD.",
"L.D.Z.F.G.G.G.L.L.L.L.L.F.F.oXP.Z.P ' s.} 4X4Xv.m.M.(.m.4Xc.7.} Z.F.F.G.XX.XF..X.X.XG.F.D..XD..X.X.X",
"L.G.G.L.L.G.L.G.L.L.L.L.D.Z.F.L.K.x ` ,.} m.(.B.z.b.m.m.m.m.5.p.d Z.P A.G..XG.G.OX<XXXF.G.H.H.H..XoX",
"L.L.L.L.H.K.L.L.L.D.S.G.F.D.G.P.oXd p.8.,.m.x.z.b.m.m.m.x.f.` p.` P Z.F.G.F.F.F.P.OXP.P.oXP.H.H..X.X",
"K.L.H.L.L.L.L.L.G.S.Z.G.L.L.G..XOX#X] m.x.p.l.z.b.n.n.n.n.c...9.oXA.F.L.F..X.X.XL.G.G.P.OXP.H.H..XD.",
"L.L.L.G.G.L.L.F.Z.S.G.L.H.K.L.G.V.J ' 0.b.` g.| &.6.&.o.o.t.v.X.d G.H.F.P XX,X.XG.G.Z.S.L.L.L.K.D..X",
"S.F.L.L.L.L.L.G.S.L.oXXXP.G.G.P.K.d f.p.x.<.] C.;X;X>.4.k.%.] g.| H.L.H.H.XX#XL..X#XS.A..XP.G.K..XD.",
"Z.S.L.K.G.H.G.G.L.XX$X$XXXG.K.XX#XL.d o.d.p. .;X-X* -XE.k.  q l ..G.H.P.#XXXG.G.OX<XG.S.#X.XH.K.F..X",
"F.G.G.Z.S.L.S.A.L.L.XX<X$XG.oXXXP.L.G.2.l r h ,.@.5Xp <.4 + s P ` L.K.L.P.L.H.G.L.P.H.G.P.oXOXL.F..X",
"L.P..XH.F.D.A.S.G.G.L.OXXXL.$XoXF.G.L.G.G.  Y.j.:X1X^.:XT.- S.L.L.K.K.H.G.G.L.XXP.G.H.H.H..XXXL..XD.",
"G..X$X$XP.P F.P.L.L.H.2.A.P.OXoXL.G.H.G.G.F.  q -X;X;X;Xk.- H.L.H.K.K.H.K.H.L.OXXXH.H.L.K.H.H.K.L.L.",
"G.P..X.XF.P OX&XL.$X$X2.Z.L.P.XXOXP.D.k ; w ;Xc a Q.% @.# D.F.G.H.K.L.H.H.L.H.F.F.L.L.L.K.H.H.H.+X,X",
"H.F.D.G.F.S.OX$XH.$X*XH.F.H.S.L.oXP.j J.;X!./.!.O.O.z O.<.q h K.P.H.H.H.L.L.H.2.Z.F.H.H.H.L.H.D..X%X",
"L.D.Z.F.L.H.L.H.L.oX$X#XXXG.Z.S.L.L.o ;X4._  .&.,.o.%.o.o.[ ,.* OXH.H.G.H.L.G.Z.P Z.F.L.H.K.G.Z.P Z.",
"OXP.D.G.L.L.XXXXG.L..XXXP.L.OX#XoXo }.|.4.;X .;X;XW.I.!.>.[ <.@ F.H.L.G.2.S.H.D.A.P F.L.K.S.S.P.H.S.",
"oX.XL.H.G.L..XXXP.L.G.F.F.K P &XXX@ {.@X4.2.] ;X;X-X&.k.-.' i 4 A.H.L.G F L .X.XD.A.F.L.K.S.S.OXXXL.",
"Z.D.L.L.L.H.A.S.OXXXF.Z.G q Q.2 j #.!.R.R.. $.] j.I.o.<.%.,.e F.H.H.3 r Q.F D.H.H.H.H.G.L.H.G.L.L.L.",
"L S.H.G.L.H.D.G..XP.G.Z.z 3 k.a q /.;XO.o b =XR.n %.` %.[ 3.> D.F.F Q.O % T.@ .XP.L.#X#XH..XoXXXP.K.",
"Z.D.L.L.H.H.H.G.H.H.H.o T./.= = %.d j.w Z.1 m 3.n b m +.l M < u w 1 l   &.=X@ +XXXK.&X&XL..X$XOX.XG.",
"F..XOXL.L.L.S.Z.H.L.H.K 1.6.W.f R.f.[ 2 F.D.O , O O : O > @ #.Y.U. Xu   &.1.K OXoXG.P.P.H.H.P.P.L.G.",
".XOX$X.XF.D.F.G.D.L.XXF.z ;Xk.-Xz h.O S.F.F.H M _.}.}.}._.% ` ` d M       G .X.XOXOXP.F.G.H.G.S.L.XX",
"+X+XOX.XD.Z..XXXV.L.+XL.K @ @ - - - oXF..X.X& r # = % # = U @ * - k L.F.2.S.G.F.OX2XXXG.L.L.F.Z.L.$X",
"P.P.P.L.G.F.P.G.P D.P.H..XOXK.F.K.L.P.L.%X&X& w.=.i.;.Q a.W G G.P.OX.XG.F.G.G.Z..X2X.XL.OX.XG.F.K.P.",
"G.G.G.K.H.L.H.G.G.F.G.G..XoXP.K.G.K.F.D.OX@ E a.i.u.W T a.q.& F.P.oXP.K.L.L.G.A.L.%X$XOXoXP.G.L.G.G.",
"H.L.H.L.H.H.G..X+X.XK.H.H.H.L.H.K.L.F.Z.F.  ;.a.a.u.I Y a.e.5 F.L.H.L.L.L.L.L.K.G.L.*X*XH.G.H.K.L.H.",
"A.D.L.H.L.H.S.S.P.oXoXK.S.A.F..XOXP.G.D.H 9 i.a.a./ 6 Y a.r.8 G.G.K.G.G.H.H.L.L.L.G.H.G.K.H.L.G..XOX",
"P S.L.H.L.H.S.A.P.XXOXoXG.Z.F.P..X.XG.L.- ( a.:.i.) 6 W a.r.9 G.G.K.P.P.K.H.G.F.G.H.2.Z.H.G.F.P.oXOX",
"P S.L.L.L.L.G.P.+X.X.X<X$XG.L.D.Z.F.L.G 0 s.a.;.) ~ $ e.a.r.9 F.H.H.oXOXL.G.G.Z.S.H.A.A.H.A.S.OXXXK.",
"D.F.K.H.F.S..XXXF.G.L.L.L.L.oXP.A.F.G.k *.a.a.;.) I $ e.a.r.9 F.G.L.F.H.$X*X$XF.D.K.F.F.L.F.F..XP.G.",
"P.L.K.P.F.P .XoXZ.D.G.A.S.K.oXoX.XH.F.8 r.a.a.;.E # $ e.a.r.9 .XP.K.S.D.*X2X,X.XG.K.L.L.H.L.L.G.G.H.",
"#X.XH.OXP.P .XOXG.G.P.OXK.P G.XXOX.XS.9 ) a.s.;.Y   $ e.a.r.9 ,X%XH..XOXP.P.P.L.H.H.L.L.L.L.G.G.G.L.",
"$XXXG..XL.D.P..XL.D.D.XX.XK.G.P.XX.X. ( ) u.w.) I * $ ~ r.) 9 oX$X.XXXXXH.S.A.G.L.K.L.G.D.F.P.$XXXH.",
"+X.XH.P.L.H.H.L.L.S.Z.G.XX#XP.F.G.j R ) ) ) ) 0 K %X$ ~ ) ) 9 S.L.$XXXG.L.S.Z.G.L.H.L.D.P S.XX<XOXG.",
"P.H.L.*X+XZ.F.L.G.G.F.G.L.P.L.D.u U ) ) ) ) ~ $ F.G.$ ~ ) ) T + G.<X#XG.L.G.G.G.K.L.P.F.P D.P..XD.Z.",
".XP.L.%XoXA.A.G..XP.P..XP.H.L.D.3 / ) ) ) ) W K XXH.5 / ) ) ) . F.%XP.D.H.L.L.L.H.H.F.D.S.S.D.G.F.S.",
"#XXXG.G.L.L.Z.D.#X.XL.OX.XH.H.V.0 ;.) ) ) ) 7 Z.$X. ~ ( ) =.*.. L.G.A.Z.G.L.H.H.L.G.Z.A.L.S.Z.G.L.L.",
"S.F.L.G.P.OXL.F..XP.H..XF.Z.F.Z.R i.r.) ) Y - F.F.. W ) ) u.s P L.K.F.F.K.L.L.G.G.H.F.F.G.G.G.L.D.Z.",
"Z.D.K.G.P.OXXXL.D.D.F.G.D.A.P.A.6 ( i.d.i.o L.S.P S.a i.i.r.8 S.H.H..X.XL.F.F.XXXXH.L.P..XL.L.L.D.Z.",
"H.L.H.H.G.L.OXXXV.P Z.G.H.L.+X.X4 R A 0 w OXL.A.2.G.G t A y 7 D.G.L.oXOXL.S.Z.,X%XG.G..X#X.XG.L.K.H.",
"H.G.L.oXXXH.P..XP.G.F.G..X.XG.P B ^ ].M L F.L.G.F.H.G _.].`.9 OX$XL.P..XH.F.F..X.XH.G.P..XP.L.L.L.L.",
"P.L.L.XX.XK.G.P.#X.XH.G.OX%XS.> S )._.2 Z.A.K.L.L.L.k N _.`.Z O %XL.F.F.G.P..X.X.XH.L.G.F.F.F.L.L.K.",
"$XXXH.Z.S.K.K.L.L.L.H.G.$X#XO ).S )._.4 G.G.L.K.L.P.k N _.'.D ! % S.S.Z.G..X$X<X$XH.L.F.Z.P A.G.L.H.",
"K.L.H.S.D.L.D.D.K.L.H.H.A.C S [.`.v v 3 G.L.L.L.K.L.F , v V V V 9 k L.D..XXXXX+XoXH.L.F.2.P Z.G.L.L.",
"P S.H.L.L.L.Z.Z.K.L.K.K.G O X O O O A.L D.L.H.L.L.H.G.F.F.D.F.#X<X<XOXL.$XXXG.G.G.G.L.F.P P A.H.L.L."
};
