/* XPM */
static char *result[] = {
/* columns rows colors chars-per-pixel */
"50 50 211 2 ",
"   c #0B0A09",
".  c #160A07",
"X  c #180C07",
"o  c #13110E",
"O  c #080A18",
"+  c #1A1611",
"@  c #1B1815",
"#  c #270C07",
"$  c #3F0B05",
"%  c #291809",
"&  c #361207",
"*  c #261D11",
"=  c #23231C",
"-  c #2E281D",
";  c #332511",
":  c #060621",
">  c #080827",
",  c #05053B",
"<  c #2A1C2A",
"1  c #383629",
"2  c #353134",
"3  c #440C05",
"4  c #5C0D03",
"5  c #4B140A",
"6  c #541705",
"7  c #5C1B05",
"8  c #6E140A",
"9  c #573806",
"0  c #493018",
"q  c #573A16",
"w  c #6B3504",
"e  c #570B25",
"r  c #761F3A",
"t  c #4C3A26",
"y  c #59393B",
"u  c #45460A",
"i  c #694504",
"p  c #764B06",
"a  c #7D5107",
"s  c #7E530A",
"d  c #6B4F19",
"f  c #775517",
"g  c #464635",
"h  c #564A31",
"j  c #56513C",
"k  c #76532B",
"l  c #695739",
"z  c #78622E",
"x  c #74663A",
"c  c #050547",
"v  c #02025E",
"b  c #100A5F",
"n  c #241747",
"m  c #303944",
"M  c #030362",
"N  c #0C0760",
"B  c #02027F",
"V  c #031073",
"C  c #052471",
"Z  c #12317A",
"A  c #57165C",
"S  c #6B1F45",
"D  c #7F2144",
"F  c #6E2552",
"G  c #5B5B44",
"H  c #62624A",
"J  c #69694F",
"K  c #756945",
"L  c #797049",
"P  c #6E6E52",
"I  c #787657",
"U  c #7D7D5D",
"Y  c #8A0F01",
"T  c #811502",
"R  c #971601",
"E  c #A81C00",
"W  c #8A2603",
"Q  c #A82901",
"!  c #B52A01",
"~  c #A93100",
"^  c #84223E",
"/  c #BB3C29",
"(  c #CE3200",
")  c #CF360C",
"_  c #D53400",
"`  c #D93600",
"'  c #DE3900",
"]  c #FD2F20",
"[  c #855301",
"{  c #875505",
"}  c #8D5A04",
"|  c #935C0B",
" . c #9C6604",
".. c #986819",
"X. c #A27902",
"o. c #B0730F",
"O. c #A86918",
"+. c #865627",
"@. c #925C3C",
"#. c #9A6A2F",
"$. c #AE6E2A",
"%. c #A77426",
"&. c #B57728",
"*. c #AC7835",
"=. c #C94801",
"-. c #E14300",
";. c #EB510F",
":. c #EB6900",
">. c #EE7600",
",. c #F2532D",
"<. c #C57C29",
"1. c #D87C2E",
"2. c #8A744C",
"3. c #A76943",
"4. c #FA7751",
"5. c #9E8009",
"6. c #B48B00",
"7. c #B4853A",
"8. c #C68E03",
"9. c #CF9300",
"0. c #CF9E00",
"q. c #DB9C04",
"w. c #C98C1D",
"e. c #E68C00",
"r. c #F38900",
"t. c #EA9400",
"y. c #F69A00",
"u. c #F89C00",
"i. c #DAA400",
"p. c #EAAB00",
"a. c #F7A501",
"s. c #FCAC00",
"d. c #F6B600",
"f. c #FEB400",
"g. c #FCBA02",
"h. c #F6B10B",
"j. c #D0862C",
"k. c #DC922E",
"l. c #CD8435",
"z. c #D58636",
"x. c #DD8D3A",
"c. c #E5A32E",
"v. c #EAB920",
"b. c #FFCA00",
"n. c #E6DA00",
"m. c #FBDD09",
"M. c #EAE000",
"N. c #FAEC05",
"B. c #F6F200",
"V. c #FFFD01",
"C. c #FFFF0F",
"Z. c #E5DB38",
"A. c #FEE729",
"S. c #84825F",
"D. c #848463",
"F. c #898764",
"G. c #898966",
"H. c #8D8D6A",
"J. c #92926E",
"K. c #969671",
"L. c #9D9D75",
"P. c #9F9F78",
"I. c #AD9D70",
"U. c #A2A279",
"Y. c #A9A97E",
"T. c #CD9751",
"R. c #E78B45",
"E. c #E59C4E",
"W. c #D2A056",
"Q. c #E7A456",
"!. c #F89A68",
"~. c #D3AC6D",
"^. c #CAA872",
"/. c #EAB872",
"(. c #FDFA41",
"). c #EAC47E",
"_. c #FCFC74",
"`. c #15058D",
"'. c #020196",
"]. c #271590",
"[. c #000CAC",
"{. c #0014B7",
"}. c #5E4393",
"|. c #5F68AE",
" X c #0049FA",
".X c #617ED2",
"XX c #977C91",
"oX c #ADAD82",
"OX c #B2B285",
"+X c #B6B689",
"@X c #BCBC8D",
"#X c #BFBF90",
"$X c #A0A0B4",
"%X c #C0C08F",
"&X c #C3C392",
"*X c #C9C997",
"=X c #CDCD9A",
"-X c #D3D39E",
";X c #EFC482",
":X c #F4C885",
">X c #F6CD8B",
",X c #EDC997",
"<X c #FBE198",
"1X c #D7D7A1",
"2X c #DDDDA6",
"3X c #F4D9A6",
"4X c #E4E4AB",
"5X c #F5E7CC",
"6X c #FAF9CE",
"7X c #F3F2EA",
"8X c #F9F9F4",
/* pixels */
"4X&XL.L.U.U.G.D.L.-X2XU.P.U.D.I D.L.U.P.U.L.L.L.U.P.K 2.L.P.P.P.U.P.U.U.U.G.U K.Y.P.U.J.I J.U.U.H.U ",
"1X@XL.U.L.H.H.H.U.+X&X&XY.H.L.J.U K.U.P.U.U.x L J.x X.J.2.@XP.P.P.P.K.J.P.Y.oXU.P.P.Y.OXOXY.U.U.K.H.",
"&XOXU.U.J.D.K.U.U.K.oX1XoXD.+XY.U K.U.U.P.f 0.P d p.9.U.s *XP.P.U.U.G.D.K.&X2XY.K.P.+X=X2X+XL.U.U.U.",
"U.U.P.L.K.K.OX@XU.L.L.J.K.L.Y.K.U K.U.P.L.[ n.[ d.V.9.[ g.d oXP.P.P.L.K.L.Y.OXY.U.P.Y.U.K.K.U.U.P.U.",
"L.L.U.+X+XoX+XoXJ.L.L.G.J.U.U.J.H.U.Y.U.f g.Z.0.(.7X9.t.<.f J.L.U.U.P.Y.+XoXL.J.P.Y.U.K.D.K.U.L.U.P.",
"U.L.U.-X2X#XoXK.U J.U.P.U.U.L.U.U.@Xz I 8.N.5X;X8X(.9...q.d D.d U.P.L.oX2X*XK.U K.%XY.P.P.P.U.P.P.P.",
"U.J.G.oX+XoXU.L.K.L.U.U.U.U.+XY.G.H.[ [ p.8X5X<X8XV.9.n.7X[ a [ P.U.L.oX=X@XL.J.P.Y.U.P.U.P.U.U.L.L.",
"U.J.G.K.L.L.L.U.U.U.U.U.K.L.+XY.G.P  .9.M.6XV._.C.V.m.6X6X .g.} L.K.J.L.OXoXP.P.Y.OXY.L.P.P.P.P.Y.Y.",
"U.L.P.U.L.U.U.L.U.U.U.U.J.D.K.U.L.s d.6.V.V.V.V.m.b.A._.V. .<.[ x S.I D.U.U.P.L.%X2XOXK.P.P.P.P.OX&X",
"U.U.U.L.U.U.U.U.U.J.H.L.K.J.L.Y.+X{ d.[ j.b.V.V.B.A.v.b.V.7.9.d.s S.D.K.P.P.L.L.Y.%XY.Y.+XY.P.P.Y.Y.",
"U.P.U.U.U.L.U.U.L.G.G.L.U.U.U.oX#XOXi.X.n.B.N.B.B.B.v.c.d.b.V.[ *XS.J.U.K.U.oXU.P.L.K.Y.@XY.P.P.U.L.",
"U.U.U.L.U.L.U.K.D.H.L.L.L.P.U.U.P.s o.m.i.O.O.&.7.7.X.k.{ N.w.{ L I U.L.S.OX2XoXK.L.F.H.U.U.P.P.U.U.",
"H.K.U.U.U.U.U.L.H.U.+XOXU.U.L.U.OX5.k.} &.x.4.,.>X>XT.} j.g.d.j.s J.U.L.P.OX%XU.oX&XH.D.OXY.L.P.L.U.",
"D.H.U.L.L.U.U.L.U.+X&X&X+XL.L.OX+XX.x 9   x.!.:X@ :X:X..g.h.O.[ G.L.L.Y.%XOXL.L.%X2XK.H.#XOXP.P.U.U.",
"K.L.L.D.H.U.H.G.L.U.OX4X&XL.+X+XU.{ D.f * 2 j.u 7X#.<.h w d P L.L.P.P.P.Y.U.P.L.Y.Y.U.P.U.+X+XU.L.U.",
"U.Y.oXU.J.J.G.H.U.L.U.+XoXU.%X+XL.L.L.F.= W.,X~.3X-Xx.E.  F.U.U.U.P.U.P.P.L.U.oXY.L.P.P.L.OX+XU.L.L.",
"P.oX&X&XY.U K.Y.U.U.L.U G.Y.@X+XP.P.P.L.= x.>X>X>X;X9 . 2.G.P.U.U.P.U.U.P.L.U.@X+XL.U.U.P.P.P.P.P.U.",
"P.Y.Y.oXK.U @X=XU.#X&XS.D.U.Y.OX@XY.K.U U % #.% ^.i K >Xt - G L.L.P.P.P.U.U.P.J.K.U.U.L.P.P.P.P.%X2X",
"P.K.J.P.K.G.@X&XP.*X-XL.K.P.J.P.+XY.J.t 9 1.+.l +.+./././.>XI.h oXL.P.U.U.U.L.S.D.K.P.U.P.U.L.J.oX*X",
"U.J.S.K.U.U.U.U.P.OX&X&XOXL.D.G.U.U.+ l.} O.O.&.O.<.*...] 4.>X+ @XU.L.P.P.U.L.D.U D.K.U.U.U.K.S.U D.",
"@XY.J.P.P.U.OXOXP.U.oXOXY.P.@X&X+XY.o z.| ,./.T.~.>X>X..>X4..X Xo P.oXK.F.J.U.K.D.U K.U.U.J.J.Y.P.H.",
"+XY.U.P.P.P.oXOXY.U.L.K.S.H U =X+XU.g y { ;.x.&.>X>X>X} 2.4.$X|.  L.P.G G K.U.U.K.G.K.U.P.G.J.+XOXP.",
"D.J.U.P.P.U.G.J.%XOXK.I j ^.w 2 D.K.K.q 1.&.j.O.R.l.} %.. Q././.$.G 1 ^.i I P.P.L.L.L.P.P.P.L.P.U.U.",
"I G.P.P.U.U.J.K.oXY.L.@ W.%   ^.g U.U.> 3.| $.[ &.b Q.;Xv o +.:X;X9 i l.1 l J.oXoXU.#X#XP.oX+X+XY.P.",
"D.J.U.U.P.P.P.L.L.P.P.@ ).*.  +.2 0 t < M k @.n M b 3.n - G.0 z.a &.; ; /.W.+ %XOXP.=X=XP.OX%X%XoXP.",
"K.Y.@XY.U.U.G.D.L.L.P.J 2.*.  t XXR.E.$.@ : : O : : , O P.K.1 | j.Q.f ~.7.2.P %X+XL.Y.Y.U.U.U.Y.U.L.",
"OX@X&XY.K.J.K.L.H.oXoXL.G     O N p [ [ # '. X X X'.v U U.K.G.o l.l :Xx.:Xl K.oX@X@XU.L.P.P.L.H.P.OX",
"%X&X@XY.J.S.OXOXU oX@XoXL.L.2.H.G = = + 8 ; # % % % w & P.P.U.P.@ = = = @ H P.K.@X4XOXL.U.U.K.S.U.&X",
"Y.Y.Y.U.K.K.Y.P.U K.oXL.OX+XL.L.L.oXU.H ! d.~ :.s.-.r.% L.L.P.P.Y.@XY.L.K.L.L.D.Y.4XoXU.@XY.L.K.P.Y.",
"L.L.L.P.U.U.P.L.K.K.L.L.OXOXoXP.L.L.H.3 e.f.E ! a.s.f.~ + oXL.L.Y.+XY.U.U.U.P.F.U.=X%X@X+XY.U.U.P.L.",
"U.P.P.U.P.U.P.Y.@XOXP.P.P.L.P.P.L.oXG.3 t.f.R Y a.f.f.;.  +XP.P.U.P.P.U.U.P.U.P.L.U.-X-XP.L.P.U.P.U.",
"G.J.U.P.U.P.H.H.oX+X+XP.H.D.K.oX+XoXH.7 u.f.R 4 ` f.g.g.7 I +XoXL.U.L.L.P.U.P.U.U.P.P.P.P.U.U.L.Y.@X",
"U H.U.U.U.U.G.G.Y.+X@X+XL.G.K.Y.+XoXJ.7 y.g.! 4 ` s.>.g.' - +XoXL.U.Y.Y.P.P.L.K.L.P.2.D.U.L.L.oXOX@X",
"U H.P.U.U.U.L.Y.%XY.Y.2X&XL.U.J.2.K.K.6 y.g.t.$ ( ' :.f.s.8 H U.L.L.+X@XU.P.L.S.H.L.F.F.P.G.H.+XOXP.",
"J.K.P.U.K.H.Y.OXL.K.U.U.U.Y.+XY.H.L.K.7 y.f.t.$ Y ' :.f.f.=.j L.L.P.K.P.&X-X&XL.K.P.K.K.P.K.K.oXY.L.",
"Y.U.P.Y.K.U OX+XD.J.P.G.G.L.+X+XY.P.K.7 y.g.t.3 # Q :.f.f.y.6 oXU.U.H.J.-X4X-XY.L.U.U.U.P.U.P.L.P.P.",
"%XY.U.@XY.U Y.@XL.L.Y.@XL.D.K.+X@XY.J.7 u.f.t.$   R :.f.f.' 7 1X=XU.Y.@XY.Y.Y.U.P.P.P.U.U.U.P.L.L.P.",
"*X+XP.Y.U.J.Y.OXU.J.J.OXY.U.L.Y.+XU.K.7 ' u.( $ = Y ` r.a.' ' X #XOXOXOXP.J.H.L.U.P.U.L.J.K.oX&X+XU.",
"@XOXP.Y.U.P.P.P.U.G.D.L.OX%XY.K.L.L.U.7 ' ' ( 3 OXI T ' ' ' ' W j &XOXL.U.H.S.K.U.P.U.K.U H.oX2X@XK.",
"U.P.U.-X%XD.K.U.L.L.K.L.U.Y.U.J.D.OX+ E ' ' ( 3 K.L.3 ( ' ' ' ' 8 H %XL.P.L.L.U.P.U.U.K.U J.oXoXK.D.",
"Y.Y.U.*X+XG.G.K.Y.Y.Y.Y.Y.P.U.K.H.oX. ' ' ' ( 3 K.+XJ ! ' ' ' ' ( h Y.J.P.U.U.P.P.P.K.J.H.J.J.L.K.G.",
"&XOXL.L.U.U.G.J.%XOXU.%XOXL.P.P.U.L.. =.-.' _ _ o 4XK.5 ' ' ' ' :.8 P D.L.U.U.P.U.P.D.G.U.G.D.P.P.P.",
"J.K.L.L.Y.@XP.K.Y.Y.U.Y.K.G.K.U.U.L.S.p a.' ' ! . oXoX= E ` ' u.d.W U K.P.U.U.P.P.U.K.K.P.K.K.U.J.G.",
"D.J.U.L.Y.@XOXY.K.J.K.P.H.G.Y.Y.P.P.K.7 y.s.s.i I K.U.U.  s.h.f._ 6 G.Y.U.K.K.OXoXP.U.Y.oXY.U.U.J.G.",
"L.U.P.U.P.U.@XOXS.U G.L.P.U.%X+XP.P.K.3 r S e j S.K.U.U.U.- 8 S R m oX%XU.G.G.-X*XP.L.oX%XoXP.P.P.P.",
"L.P.U.+XOXL.Y.Y.Y.L.J.L.Y.+XL.K.U.J.U 6 ].{.V G K.L.U.U.U.U M {.) V F.oXU.K.J.OXoXP.P.U.oXY.U.P.U.U.",
"Y.U.U.Y.OXP.L.Y.%XY.U.L.@X*XH.G.K.H.O A ].'.B H U.U.L.K.L.L.g '.`.^ > K.P.Y.oXY.Y.P.U.P.K.K.K.U.P.P.",
"&X+XL.G.G.U.U.U.U.U.L.L.&X2XY.H.U & / F [.'.'.H P.P.J.D.K.L.g '.`.^ ].> D.oX&X2X*XP.U.K.D.U G.P.U.P.",
"U.U.L.J.J.U.J.J.L.U.L.P.OX%XY.K.1 7 C C C c , H P.U.K.J.L.L.g , c ].}.D Z G.OX#X+XP.P.K.U U D.L.U.U.",
"U G.U.U.U.U.G.D.L.U.U.L.L.L.L.U.L.L.G.I G.K.J.L.U.P.U.U.U.L.K.%X  O O   O P L.L.L.U.U.K.S.U G.L.U.P."
};
