/* XPM */
static char *result[] = {
/* columns rows colors chars-per-pixel */
"50 50 192 2 ",
"   c #0D0301",
".  c #120601",
"X  c #190501",
"o  c #150A01",
"O  c #1B0D01",
"+  c #171001",
"@  c #1D1301",
"#  c #230D01",
"$  c #231501",
"%  c #2A1501",
"&  c #241B01",
"*  c #2A1D01",
"=  c #321E01",
"-  c #0E2D01",
";  c #162301",
":  c #1D2601",
">  c #1D2C01",
",  c #0B3301",
"<  c #1A3701",
"1  c #143801",
"2  c #1B3D01",
"3  c #262501",
"4  c #2D2101",
"5  c #222E01",
"6  c #2B2C01",
"7  c #332501",
"8  c #3B2501",
"9  c #362901",
"0  c #3B2C01",
"q  c #243C01",
"w  c #2A3A01",
"e  c #323501",
"r  c #3C3301",
"t  c #333B01",
"y  c #3F3F01",
"u  c #402501",
"i  c #422D01",
"p  c #4B2D01",
"a  c #443201",
"s  c #4A3601",
"d  c #433C01",
"f  c #4D3901",
"g  c #533501",
"h  c #5A3601",
"j  c #533D01",
"k  c #5B3D01",
"l  c #623E01",
"z  c #0F4601",
"x  c #0C4F01",
"c  c #144201",
"v  c #1D4901",
"b  c #0E5601",
"n  c #0E5F01",
"m  c #145501",
"M  c #155A01",
"N  c #1B5D01",
"B  c #244301",
"V  c #2A4501",
"C  c #234C01",
"Z  c #2A4A01",
"A  c #344701",
"S  c #3B4401",
"D  c #344E01",
"F  c #3A4C01",
"G  c #2D5301",
"H  c #2B5B01",
"J  c #335201",
"K  c #3B5601",
"L  c #375C01",
"P  c #3B5B01",
"I  c #0C6301",
"U  c #0E6D01",
"Y  c #156301",
"T  c #1C6601",
"R  c #146C01",
"E  c #1C6D01",
"W  c #167101",
"Q  c #1B7301",
"!  c #1E7901",
"~  c #226401",
"^  c #2A6001",
"/  c #216C01",
"(  c #2C6901",
")  c #326401",
"_  c #3E6301",
"`  c #326B01",
"'  c #3B6B01",
"]  c #237601",
"[  c #2B7601",
"{  c #237C01",
"}  c #2C7A01",
"|  c #3B7301",
" . c #347D01",
".. c #3B7C01",
"X. c #444401",
"o. c #4A4601",
"O. c #444C01",
"+. c #4C4D01",
"@. c #574001",
"#. c #5B4301",
"$. c #544D01",
"%. c #5C4C01",
"&. c #445201",
"*. c #435B01",
"=. c #4D5B01",
"-. c #555301",
";. c #5B5401",
":. c #535C01",
">. c #5C5D01",
",. c #614601",
"<. c #6A4601",
"1. c #654A01",
"2. c #6A4D01",
"3. c #754701",
"4. c #734C01",
"5. c #615201",
"6. c #6E5101",
"7. c #645E01",
"8. c #735401",
"9. c #7B5601",
"0. c #755801",
"q. c #7B5A01",
"w. c #426301",
"e. c #4A6201",
"r. c #446B01",
"t. c #526401",
"y. c #586601",
"u. c #546B01",
"i. c #5A6D01",
"p. c #457901",
"a. c #487D01",
"s. c #537301",
"d. c #5B7E01",
"f. c #656301",
"g. c #6B6301",
"h. c #646D01",
"j. c #756201",
"k. c #7E6201",
"l. c #746B01",
"z. c #786C01",
"x. c #687801",
"c. c #727001",
"v. c #767A01",
"b. c #815601",
"n. c #815D01",
"m. c #8A5C01",
"M. c #846101",
"N. c #8A6501",
"B. c #836B01",
"V. c #8E6801",
"C. c #936501",
"Z. c #936D01",
"A. c #9C6E01",
"S. c #857A01",
"D. c #9C7301",
"F. c #977901",
"G. c #9A7801",
"H. c #A27501",
"J. c #A57A01",
"K. c #AB7E01",
"L. c #2B8201",
"P. c #2F8901",
"I. c #338201",
"U. c #3B8501",
"Y. c #3D8801",
"T. c #389101",
"R. c #448501",
"E. c #4C8501",
"W. c #448C01",
"Q. c #518501",
"!. c #598301",
"~. c #528B01",
"^. c #5C8D01",
"/. c #449101",
"(. c #4B9701",
"). c #5C9301",
"_. c #559A01",
"`. c #5B9B01",
"'. c #679C01",
"]. c #4EA201",
"[. c #56A501",
"{. c #5FA901",
"}. c #63A301",
"|. c #68A001",
" X c #64AA01",
".X c #898701",
"XX c #908001",
"oX c #AF8101",
"OX c #B48401",
"+X c #B48A01",
"@X c #BC8B01",
"#X c #C18E01",
/* pixels */
"* 4 & o o & & 4 & o   @ o   $ & @ @ @ & & @ @ & & & O . @ @ @ o   @ & @   o & 3 @ . @ @   o @ @ & & ",
"@ @ & & 4 7 & & & s ,.,.j s 9 f 6.6.1.%.j @.6.#.r V > = #.8.2.s i 2.6.1.s f @.4 O @ i j j ,.6.8.@.a ",
". O 4 s @.@.9 & & M.@XH.V.q.j 8.OX+XOXD.M.V.OXC.;.Q H k J.#XOXq.q.OX@XOXN.Z.Z.a @ 4 6.Z.D.oX+XOXV.1.",
"  $ s q.G.J.1.7 4 q.K.0.6.6.1.#.2.D.J.V.0.6.<.j e I r.C.q.q.Z.8.6.q.N.Z.D.Z.M.q.s & M.Z.#.8.9.j f @.",
"o 9 2.D.OXD.8.s 0 #.q.q.8.1.8.1.#.q.M.8.0.2.s 9 4 , w..XM.8.8.8.2.#.#.8.D.V.8.0.#.r 1.8.2.1.@.9 9 a ",
"& s N.OXD.1.1.1.f 9 a Z.M.2.q.M.n.6.1.2.q.0.j 0 * . V [.XXN.<.q.0.f s #.Z.M.1.f #.1.4 s D.M.#.f r 4 ",
"  #.oXD.M.q.8.,.f 7 9 q.2.j 8.6.#.j @.2.2.j 0 a a $ B I.>.4.0.8.2.s j 1.1.q.N.1.@.j 7 4 s q.M.2.j a ",
"  ,.@XV.q.q.2.#.j a 0 j @.j @.j j j @.1.j a 9 a p % 2 E e k V.9.#.@.#.#.s q.J.q.1.f a 4 @ 0.D.6.f s ",
"@ 6.+XZ.8.2.j j 2.@.s 7 j ,.9 p 2.2.,.j f s f i * X - I : g D.q.1.2.j j ,.M.D.N.8.1.j 0 & q.Z.@.0 7 ",
"o j Z.n.1.k k <.9.4.h * g 2.s s #.#.j 9 s g g O.G z b E m H s.j.4.@.@.#.2.2.6.8.6.#.a 4 & #.2.0 7 7 ",
"  s N.6.@.X.;.g.l.g.;.t X.;.+.d s s i 9 r +.o.' L.Y M / T R U u.0.@.2.8.2.j s #.@.a 4 & & 9 s 7 7 7 ",
"@ %.H.<.F E U.W.U.W.W. .[ [ ] L g 8 u s _  .I.} E 5 4 e 9 B I R _ q.A.C.@.s s r 7 4 7 * o * r s 0 & ",
"@ 9 g = : c v C C C G G v c C Z Z C C G E Q v v B 7 % $ % 3 1 I ] u.-.k #.f 7 @ @ @ & @   O 4 9 4 @ ",
"9 * O o $ 7 # O = 7 = * O . # < I R R M n z o # * 7 $ . & * 7 H { { - O ,.s & o @ 4 7 4 O & 4 4 4 4 ",
"J.Z.n.#.<.N.8.<.4.N.q.8 X . # q R < 6 y e 6 i 7 * 7 $ o $ 0 #.8.i.L.B % 0 7 & + 0 q.N.q.#.2.8.#.#.#.",
"H.H.D.8.8.Z.V.N.q.V.M.F q 1 < m Q S g k p i #.#.j a $ . a 1.2.m.z.U.*.s 7 $ & s 6.q.Z.Z.0.q.q.q.0.q.",
"1.6.q.6.1.2.q.q.1.<.;. .{ E I I / g.m.2.@.j 1.q.q.#.* O 2.n.2.9.c.W.i.<.9 O # M.Z.2.q.n.M.6.6.q.M.q.",
"f @.#.8.q.q.8.1.j <.5.} N 5 < t -.j.q.2.8.6.j 1.6.@.7 4 q.q.h ,.f.W.e.g s 7 * 1.q.q.8.6.6.0.q.6.6.6.",
"f s @.q.M.q.6.#.j $.e.} C # O p b.q.0.2.q.8.f #.1.j a r #.1.j ,.>.Y.=.g s 4 * 1.q.q.1.#.2.6.6.<.2.6.",
"s #.6.q.q.2.2.<.<._ ! I.G % @ #.D.q.1.2.2.,.f #.2.f s s 9 s <.2.:.I.u.,.9 O @ M.Z.2.j j 2.@.j 1.0.M.",
"f f #.6.2.j @.j p ) L.J 6 = 1.q.q.#.#.2.#.j #.#.j s @.1.@.j j h +.Y.R.e.s % & 6.8.j f f j #.#.2.2.%.",
"s s @.1.%.j f s e H ) 7 $ 4 V.Z.1.j j 1.@.@.1.#.j j @.#.1.,.@.f *.W.P.} &.9 * h #.j f f j 1.2.1.j s ",
"4 s 2.5.2.<.g O. .D 7 7 @ O 8.M.2.2.#.f #.1.j #.2.2.f 9 s #.2.r.L.I.{ ! { B * s #.2.j j 1.2.1.j f f ",
"a s f #.,.#.p A L.J p 9 $ & 1.8.#.#.#.j #.@.r f ,.%.s 7 s s s |  .D D K P H C 9 s ,.j f f #.#.f s 0 ",
"s 0 4 i s s 7 q T F p 7 & & j j a a 0 a s a 4 0 s s 0 7 a 0 6 ( ( 4 8 s p D Y w 9 s s 0 4 9 s s 9 4 ",
"4 4 * & % * z x : O o & @   & 4 & o . o & * o @ 4 4 4 & X ; Y U m & % & & & : N c . & & o & 4 * & & ",
"& & 4 A J D ' y.#.p 7 s f h @.@.f j p 7 & @ @ @ & @ @ * w ( T.` F f f f #.k #.U.) = 7 * @ @ & a f j ",
"& * r E.].W.S.H.D.q.6.M.Z.D.G.Z.M.D.Z.6.a & & 4 & . O r Q.{.|.g.4.M.M.M.D.H.F.`.!.2.#.s 7 * 9 1.q.M.",
". 9 0.'.).7.M.q.1.#.8.D.N.0.V.q.2.M.M.2.8.#.4 & & @ F ^.v.l.7.q.q.8.N.D.q.b.B.(.!.m.m.,.4 @.6.j 1.8.",
". h F.|.!.<.9.0.j j 2.N.0.@.2.6.8.8.0.8.n.8.9 * * & w. Xz.3.,.9.8.#.q.Z.2.4.M.s.s.h.c.$.& 1.M.@.@.#.",
"@ 2.+X).p.2.q.b.2.j j 1.#.f s 1.M.6.6.n.8.,.j 9 & $ P _.f.<.2.2.#.f 6.q.2.8.n.4.=. .P.^ 3 ,.M.2.@.s ",
". 2.@X7.+.q.q.2.@.2.8.j s f #.2.8.#.j s j j j 9 $ $ P |.l.9.q.,.@.#.6.6.j @.,.2.%.K [ N @ h 8.#.j f ",
". h G.<.,.q.2.j 0 1.8.@.j @.%.1.,.f 0 9 0 s s 0 4 # P }.z.n.b.#.f 2.2.#.@.s s ,.h i ~ ~ r k #.s a s ",
"& 9 @.0.q.2.@.s 7 r @.1.2.1.j f f 9 0 f 0 4 4 a s . C _.7.<.2.j j 2.#.f 2.#.f o.0 & M | q.<.a 7 7 7 ",
"* 4 r q.N.q.1.j j f s s j #.j a 9 0 s 0 a a a s 9 . d .Xd.t.j f s @.f j #.f 0 7 s #.=.:.2.s 0 a a a ",
"& & 7 1.q.q.8.2.<.#.f 9 0 s s 7 & 0 s 7 s f s r * . p Z.~.p.s g @.j s s a 0 4 @ s M.4.k f 9 7 d s s ",
". @ 4 9 a @.q.q.j ,.<.j 0 7 4 @ . * r f j s 9 9 4 . = #...` g ,.6.5.s 7 4 4 & o 9 8.s 0 j 0 7 9 9 9 ",
"o o o O & 4 i i 7 7 9 9 9 4 & @   o $ 9 * * 4 4 & @ $ 7 N E G e 9 s = @ + @ & . $ 8 & @ $ * & * & & ",
"9 * O . @ 4 $ @ 4 $ O * & & * & O O $ 7 $ O $ & * 7 7 6 M W E : # * @ . o @ & O . . o o @ * 7 4 7 7 ",
"J.M.j O * 8.n.n.8.M.8.9 @ O & 0 #.<.9.N.n.k X O 0 3.c.~.[.!.;.q.b.#.9 * 4 4 * & $ $ + 0 m.q.2.#.8.N.",
"H.N.#.O 9 Z.D.M.q.Z.M.@.& . s 1.0.q.N.A.S.i.V < V y.^.[.^.h.2.N.Z.q.#.s 0 & @ & & & 7 ,.D.V.0.8.V.D.",
"2.#.s o i D.q.2.2.1.2.2.7 O 6.N.k.6.6.k.d././.[ I E I.R.o.g <.2.6.q.q.#.9 @ o & & 4 #.8.q.8.6.n.M.q.",
"q.8.#.O $ j q.N.2.#.j #.9 * M.A.k.x.~.E.u.f.z.f.+.w :.S.#.s j f #.6.1.f 9 & $ @ 7 @.0.q.6.0.q.8.1.j ",
"q.q.2.* . $ q.Z.1.s a a * * M.C.0.).(.a.-.<.9.8.k = l C.#.s j f j #.@.s 0 4 & i 1.0.n.8.#.8.q.#.j j ",
"2.0.q.s @ o ,.q.f 0 7 7 @ O 8.q.5.~.!.6.j j <.#.s 7 s 2.j @.2.@.s f f f f * @ n.D.M.8.#.f ,.1.f #.2.",
"q.0.6.j * . ,.n.f 9 7 a * * n.m.2.R.!.b.k s @.s i j @.@.#.#.#.f @.#.s 0 9 @ * Z.Z.#.j #.8.#.#.#.#.#.",
"0.8.1.j 4 . j 6.@.a 0 s 7 7 N.C.2.p.E.l.%.s f 9 9 1.%.s 1.#.a a j 1.s 3 & & 7 M.q.s a #.k.#.s 1.j a ",
"f #.2.s & o * s 1.#.s 9 & 7 8.n.2...P...&.g j 9 4 ,.,.f j a & 4 0 j 9 & 7 & 4 1.1.s s #.2.s 9 f r & ",
"s f s 0 & . o 7 2.j 0 a & $ 1.4.@.S H { D i 9 * 4 j j 0 9 7 4 9 a 0 7 7 a 7 * a s f #.@.s 9 7 r 4 & ",
"f a 4 7 & o   % 1.s 9 f * o #.1.s 8 w Q V = & & 4 s a 4 & * 9 s s 7 4 9 f 0 & 4 0 f 2.#.7 4 7 7 4 & "
};
