/* XPM */
static char *_281d8fcd85a44be99cc405f4ef13044LutQM7o12lEHkzY8[] = {
/* columns rows colors chars-per-pixel */
"50 50 61 1 ",
"  c #79795B",
". c #7A7A5C",
"X c #7B7B5C",
"o c #7F7F5F",
"O c #808060",
"+ c #828262",
"@ c #848463",
"# c #878765",
"$ c #888866",
"% c #8B8B68",
"& c #8B8B69",
"* c #8D8D6A",
"= c #8F8F6C",
"- c #90906C",
"; c #94946F",
": c #959570",
"> c #969671",
", c #989872",
"< c #9B9B74",
"1 c #9B9B75",
"2 c #9E9E76",
"3 c #9F9F78",
"4 c #A0A078",
"5 c #A3A37A",
"6 c #A3A37B",
"7 c #A7A77D",
"8 c #A7A77E",
"9 c #AAAA7F",
"0 c #ABAB80",
"q c #AEAE83",
"w c #AFAF84",
"e c #B2B285",
"r c #B2B286",
"t c #B3B387",
"y c #B5B587",
"u c #B7B789",
"i c #B8B88A",
"p c #BBBB8C",
"a c #BCBC8D",
"s c #BDBD8D",
"d c #BFBF90",
"f c #C1C190",
"g c #C2C292",
"h c #C3C393",
"j c #C4C493",
"k c #C7C795",
"l c #C9C997",
"z c #CBCB98",
"x c #CDCD9A",
"c c #CFCF9C",
"v c #D0D09C",
"b c #D4D49F",
"n c #D7D7A1",
"m c #DADAA3",
"M c #DBDBA4",
"N c #DBDBA5",
"B c #DFDFA7",
"V c #E1E1A9",
"C c #E5E5AC",
"Z c #E6E6AC",
"A c #EBEBB0",
/* pixels */
"Zj2244#+2xN423+ +,4444244422212244484&.,444;.-93*o",
"na241-&-2ukk8=2-o>4444r2-29rgu4444>-20r344qrr423>&",
"aq24-+,8429Bq+i9+,4429g,+,qgBl4244&#,kBw12yxBu2444",
"8832,>ru44,;;19>o,442492>249qw4444,>18q42294>24444",
"224yuruq=21#>42>*8q24228u4322,-22348u01-2w8-#>4444",
"228bNa9;+=4424224ui4424yp4243-+>8420Bk,o>g02324444",
"4-$qu942:14449i8$*>4qr49032228q4242qzp2>1922444442",
"4;$;224404421>i9@o$4gj4,298228r92,-2r0239q82434480",
"444444444444*@142222xm4,8pr24>+>1+o$2422aVr,3224wg",
"444444448-*42-,9iiq4qgvy30uu448ku++-4412qa98u9328q",
"44444444>*$2442qagi4,9ba11qa94img$>2,4q42>,8p03442",
"4444444>+*22442244422,$;33444>#20221orNq4,#*444444",
"->444442*6uq9228y44ui4 ,y642># +-4622rg8qg$$r82444",
"+-4244224ygkr22ra89ajr@4a642#o#o$249fr,,aV,*aq4244",
",22@*4*#44rBg4ur844992,24442@$>1244484222q428up422",
"40q2>;&*422aq4fu,222224es642+$644444224r92422qy422",
"2rgj8o,644,O$8ay4332424lm922#&243444424au434444444",
"269q;Osz4gj+#49rp9>#-qvj9422q9423444443->4444424fm",
"4,;2;$al4lb,,2-4u0;#;qxgq429gp490444444o+,34442;ql",
"4-@,44424yjgr1+*4444442km9,6pu3up424462$o+,444,+O+",
"s9*246yr44qr83agi84442>qi8-#4w3,,34,$-2>#o>44-*92*",
"yq4444qr942;>0vvy42428r824-#,44$$481*>49;#,44&-pr2",
"+-4444$-sr,+*48,#>341qBa123242432244aw222223422444",
" *4444-;e9<->42#.8r428gq2rw444842*>9gr2r04ga4qyr94",
"+;4644444444448>@ru124,20pr432142+*0pr4gy4xx2rgaq2",
",9i844$$444428pu14,+>,+6a0444>+>4218gr4ay448429942",
"rag9;-,,*4r622444q8&>,*4r4244,*,4444444raa9>24,*4r",
"aga9-Oryo9a444#$4ii4484234434444446>+*4,aVr264,+4j",
"99944,9<o-92ri2,4946zx424iy422330uw2,22+qZr2iq,,48",
"22244442,,22qi9444,>az628u8;09328u02442$4xgiu94422",
"22444429ar24224444;+-44424*@rp324444442424vv422244",
"#>4442**8ui2*#,qa9,;144444,;8ri82424442942444442ei",
".&4444*$8yii,@,9r4484222444449i92499422;24O+4,,9ys",
"o*444429g99Vj44-+>4424242444444424yi44<@*2$$4$*sr2",
"*>44>*9r,,4664i8*14429lhr3wu46r314,2lvj,;4;,4;,q92",
"9840-ory+;2$*2ii94442qvva28u4qlu84*;vVbq2264444224",
"ar3a8oqa229i4O,yaq22244ya4*@;iVZx2qu94944444444244",
"kr2w8-8r6-;r94<9y44y88fjklr219glarrr4-*24444-,9jy4",
"aq2942344*#,ya9>,4ea4qNxpmca942,8jr24-+,446;O*ema,",
"824va#>42<,4494-+rp4*#9q8898ir,+,Vs244,4444;o-9q;+",
"r64li$$,q99q822>*0uq;&,4ruq2agw-,l9-444444>**-;1;%",
"sr2244$-sq2fr242420dq24qjBg3uga944$@444444#$4*@244",
"*,429a2,9949>#,44449424>;rw292*262,;444242,>4,,4;@",
"@-429iy6-;,2-$804444994&o;432>@>449q4,,rr2499944;#",
"444424ar+X@223ai4444up4$O244444324ia8$$vx419f92444",
"224ir29q9<;2wr1,4*#$-242;244424kj49q4;;rq228r84444",
"944rq429ar42ig-$>&+#+#24842,433zl4;,28008242,>2244",
"gy2$%444444<jBr$+>32324444-+,44444$+>rgBk34>+o$264",
"444->4;-2442ra9>-22*292244,-244ujj4;eeefy44>O @444",
" *4444@#4444224444>O-4444444444cAZa6fr2,224,OO@244"
};
